<?xml version="1.0" standalone="no"?>
<!DOCTYPE svg PUBLIC "-//W3C//DTD SVG 1.1//EN" "http://www.w3.org/Graphics/SVG/1.1/DTD/svg11.dtd" >
<!--
2013-9-30: Created.
-->
<svg>
<metadata>
Created by iconfont
</metadata>
<defs>

<font id="iconfont" horiz-adv-x="1024" >
  <font-face
    font-family="iconfont"
    font-weight="500"
    font-stretch="normal"
    units-per-em="1024"
    ascent="896"
    descent="-128"
  />
    <missing-glyph />
    
    <glyph glyph-name="shenxin_touxiang" unicode="&#58890;" d="M512 810.667C276.48 810.667 85.333 619.52 85.333 384S276.48-42.66700000000003 512-42.66700000000003 938.667 148.48000000000002 938.667 384 747.52 810.667 512 810.667z m0-128c70.827 0 128-57.174 128-128s-57.173-128-128-128-128 57.173-128 128 57.173 128 128 128z m0-605.867a307.2 307.2 0 0 0-256 137.387C257.28 299.09299999999996 426.667 345.6 512 345.6c84.907 0 254.72-46.507 256-131.413A307.2 307.2 0 0 0 512 76.79999999999995z"  horiz-adv-x="1024" />

    
    <glyph glyph-name="shenxin_fabuguanli" unicode="&#58892;" d="M815.891661-11.678543999999988a16.588095 16.588095 0 0 0-8.806026-12.953049 15.871325 15.871325 0 0 0-15.461743 0.307187l-263.873585 138.080531a30.411508 30.411508 0 0 1-8.498839 2.815881 30.769892 30.769892 0 0 1-38.039983-14.335391L413.937544-21.50852599999996v103.368407c0 42.289403 14.437786 83.247662 40.753468 115.655885l477.061325 587.955811-115.860676-797.150121zM965.030922 880.904322a76.335956 76.335956 0 0 1-82.58209 5.478167L67.584264 439.937463A81.916519 81.916519 0 0 1 25.602048 367.54373899999996a81.916519 81.916519 0 0 1 42.494194-72.035338l212.47097-113.556774a30.36031 30.36031 0 0 1 31.742651 0.921561 32.613014 32.613014 0 0 1 14.59138 29.18276 32.357025 32.357025 0 0 1-17.612052 27.237242l-212.47097 113.556774a16.997678 16.997678 0 0 0-8.806025 14.949765c0 6.297332 3.379056 12.082686 8.754827 15.000962L865.246363 803.800398 406.923442 239.24199199999998A249.998975 249.998975 0 0 1 351.425001 81.91107899999997v-160.095596a48.842724 48.842724 0 0 1 48.381943-49.764285c17.253667 0 33.227388 9.727587 41.572633 25.394121l80.175793 147.04015 241.65373-125.844251c22.57824-12.287478 49.559494-12.492269 72.342525-0.511978a81.40454 81.40454 0 0 1 42.340601 60.618223l119.546919 823.517001A82.377299 82.377299 0 0 1 965.08212 880.904322z"  horiz-adv-x="1024" />

    
    <glyph glyph-name="shenxin_xitongguanli" unicode="&#58894;" d="M215.823059-79.20941200000004c0 26.925176 21.564235 48.730353 48.188235 48.730353H455.378824c17.227294 0 33.069176-9.336471 41.562352-24.395294 8.493176-15.058824 8.493176-33.731765 0-48.790588a47.826824 47.826824 0 0 0-41.562352-24.335059H264.011294a47.585882 47.585882 0 0 0-34.093176 14.215529 48.850824 48.850824 0 0 0-14.095059 34.514824zM1102.787765 578.9214119999999c0-17.468235-9.155765-33.551059-23.973647-42.224941a47.405176 47.405176 0 0 0-47.887059 0 48.911059 48.911059 0 0 0-23.973647 42.224941V774.023529a24.274824 24.274824 0 0 1-23.973647 24.45553H119.808a24.335059 24.335059 0 0 1-23.973647-24.45553v-585.185882c0-13.372235 10.661647-24.455529 23.973647-24.455529h215.823059c17.167059 0 33.008941-9.396706 41.562353-24.395294 8.493176-15.058824 8.493176-33.731765 0-48.790589a47.826824 47.826824 0 0 0-41.562353-24.335059H48.067765a47.646118 47.646118 0 0 0-33.972706 14.21553 49.091765 49.091765 0 0 0-14.095059 34.514823V847.269647C0 874.194824 21.564235 896 48.067765 896H1054.72c12.769882 0 25.057882-5.12 33.972706-14.215529 9.035294-9.216 14.095059-21.564235 14.095059-34.514824v-268.288z m-218.352941-705.355294a47.585882 47.585882 0 0 0-35.117177 15.179294c-11.625412 12.830118-48.188235 46.381176-78.185412 46.381176-29.816471 0-66.981647-33.671529-77.583059-45.417412a47.826824 47.826824 0 0 0-34.93647-15.058823 43.369412 43.369412 0 0 0-17.829647 3.614118l-0.90353 0.421647-91.196235 51.862588-0.963765 0.722823a45.056 45.056 0 0 0-14.637176 53.729883c0 0.120471 8.432941 19.757176 8.432941 37.647059a97.581176 97.581176 0 0 1-96.677647 98.304H440.922353c-15.179294 0-27.708235 13.854118-31.683765 35.056941a471.823059 471.823059 0 0 0-7.830588 74.089412c0 31.924706 7.408941 72.282353 7.649882 74.089411 4.035765 21.504 16.685176 35.478588 32.225883 35.056941h3.19247c53.428706 0.120471 96.557176 43.971765 96.677647 98.304 0 17.889882-8.432941 37.345882-8.432941 37.647059a44.694588 44.694588 0 0 0 14.817883 53.609412l0.963764 0.722824 96.256 53.729882 1.024 0.421647a48.368941 48.368941 0 0 0 52.585412-11.083294c11.444706-12.227765 47.405176-43.610353 76.498824-43.610353 28.852706 0 64.632471 30.840471 75.956705 42.767059a48.549647 48.549647 0 0 0 52.766118 10.721882l0.903529-0.421647 92.943059-52.525176 0.90353-0.722824c16.685176-11.745882 22.889412-34.936471 14.637176-53.729882 0-0.120471-8.372706-19.636706-8.372706-37.526589 0-54.272 43.309176-98.183529 96.677647-98.304h3.192471c15.540706 0.421647 28.250353-13.552941 32.225882-35.056941 0.240941-1.807059 7.710118-42.224941 7.710118-74.089411 0-31.924706-7.469176-72.463059-7.830588-74.089412-4.035765-21.504-16.685176-35.418353-32.225883-35.056941h-3.19247c-53.428706-0.120471-96.557176-43.971765-96.677647-98.304 0-17.889882 8.432941-37.526588 8.432941-37.647059 8.071529-19.275294 1.927529-41.562353-14.817882-53.729883l-0.963765-0.722823-94.509177-53.007059-0.903529-0.481882a43.971765 43.971765 0 0 0-17.347765-3.493647z m-22.226824 108.423529a4.758588 4.758588 0 0 1 2.288941-0.481882h0.120471l70.294588 39.514353a122.398118 122.398118 0 0 0-9.456941 43.730823c0 60.536471 46.622118 110.351059 106.014117 113.603765 0.783059 4.818824 5.421176 31.563294 5.421177 51.621647 0 20.178824-4.638118 46.863059-5.421177 51.561412-59.392 3.252706-105.893647 53.127529-106.014117 113.664 0 20.299294 7.830588 39.755294 9.456941 43.851294l-69.089882 38.972235h-0.301177a5.963294 5.963294 0 0 1-2.650353-0.602353c-7.830588-8.011294-16.504471-15.36-25.539764-21.865412-21.323294-15.299765-41.441882-23.009882-59.934118-23.009882-18.672941 0-38.851765 7.830588-60.29553 23.431529a184.259765 184.259765 0 0 0-25.72047 22.347295 6.023529 6.023529 0 0 1-2.650353 0.662588h-0.240941l-71.68-40.056471c1.807059-4.096 9.456941-23.491765 9.456941-43.730823-0.120471-60.536471-46.561882-110.411294-105.953882-113.664-0.783059-4.698353-5.421176-31.503059-5.421177-51.561412 0-20.178824 4.457412-46.863059 5.421177-51.742118 59.392-3.252706 105.833412-53.067294 106.014117-113.603764 0-20.299294-7.890824-39.755294-9.517176-43.730824l67.764706-38.550588h0.180706c1.024 0 1.807059 0.361412 2.228705 0.481882 8.011294 8.553412 16.685176 16.263529 25.961412 23.190588 21.684706 16.263529 42.345412 24.335059 61.44 24.335059 19.154824 0 40.056471-8.432941 61.861647-24.877176 14.516706-10.962824 24.636235-22.106353 25.961412-23.491765z m-88.003765 102.159059c-80.112941 0.120471-145.227294 66.258824-145.227294 147.696941 0 81.558588 65.234824 147.757176 145.227294 147.757177 80.052706 0 145.287529-66.319059 145.28753-147.757177 0-81.498353-65.114353-147.696941-145.28753-147.696941z m0 222.870588c-40.719059 0-73.728-33.551059-73.908706-75.173647 0-41.441882 33.069176-74.992941 73.908706-75.113412 40.719059 0 73.788235 33.551059 73.788236 75.113412 0 41.441882-33.069176 75.053176-73.788236 75.173647z"  horiz-adv-x="1145" />

    
    <glyph glyph-name="shenxin_guize" unicode="&#58895;" d="M432.774737-27.75578900000005H138.509474c-19.132632 0-34.654316 14.282105-34.654316 31.959578V767.730526c0 17.623579 15.521684 31.959579 34.654316 31.959579h692.547368c19.078737 0 34.600421-14.336 34.600421-31.959579V496.101053c0-12.719158 5.443368-24.899368 15.198316-33.845895 9.701053-9.000421 22.959158-14.012632 36.702316-14.012632 28.564211 0.323368 51.577263 21.557895 51.954526 47.858527V767.730526c0 70.602105-61.978947 127.730526-138.509474 127.730527H138.509474C101.861053 895.461053 66.613895 882.095158 40.636632 858.112A122.987789 122.987789 0 0 1 0 767.730526v-766.760421c0-70.602105 61.978947-127.730526 138.509474-127.730526h294.265263c28.564211 0.323368 51.631158 21.557895 52.008421 47.858526a45.810526 45.810526 0 0 1-13.958737 36.001684 54.110316 54.110316 0 0 1-37.995789 15.090527M259.718737 707.045053h380.874105c34.600421 0 51.900632-16.006737 51.900632-47.966316 0-31.905684-17.246316-47.912421-51.900632-47.912421H259.718737c-34.654316 0-51.954526 16.006737-51.954526 47.966316 0 31.905684 17.300211 47.912421 51.954526 47.912421M268.503579 517.658947h175.804632c35.139368 0 52.709053-16.545684 52.709052-49.583158 0-33.145263-17.569684-49.637053-52.709052-49.637052H268.503579c-35.193263 0-52.762947 16.491789-52.762947 49.583158 0 33.091368 17.569684 49.583158 52.762947 49.583158M813.487158 67.799579c-58.260211 0-105.472 44.409263-105.472 99.22021s47.211789 99.220211 105.472 99.220211c58.206316 0 105.472-44.409263 105.472-99.166316 0-54.864842-47.211789-99.274105-105.472-99.274105z m263.706947 152.144842h-60.469894c-4.850526 17.946947-12.449684 35.031579-22.528 50.930526l42.90021 39.720421a48.774737 48.774737 0 0 1 0 70.76379 55.134316 55.134316 0 0 1-74.536421 0l-42.900211-40.367158a207.386947 207.386947 0 0 1-53.463578 21.180632V418.492632c0 27.378526-23.605895 49.583158-52.709053 49.583157s-52.762947-22.204632-52.762947-49.583157v-56.266106a211.914105 211.914105 0 0 1-54.110316-21.180631l-42.199579 40.421052a55.349895 55.349895 0 0 1-74.913684-0.377263 47.750737 47.750737 0 0 1 0.377263-70.440421l42.145684-39.720421a186.314105 186.314105 0 0 1-22.474105-50.930526H549.726316c-29.103158 0-52.709053-22.204632-52.709053-49.583158 0-27.432421 23.605895-49.583158 52.762948-49.583158h60.469894c4.850526-17.785263 12.449684-34.654316 22.528-50.337684l-42.199579-40.313263a47.589053 47.589053 0 0 1-15.737263-35.085474c0-13.204211 5.658947-25.869474 15.737263-35.031579a55.134316 55.134316 0 0 1 74.536421 0l42.199579 40.313263c16.869053-9.431579 35.085474-16.599579 54.110316-21.180631v-56.858948c0-27.432421 23.605895-49.583158 52.762947-49.583158 29.103158 0 52.762947 22.150737 52.762948 49.583158v56.858948a207.494737 207.494737 0 0 1 53.409684 21.180631l42.900211-40.313263c20.803368-18.216421 53.194105-17.731368 73.296842 1.185684a47.535158 47.535158 0 0 1 1.239579 68.931369l-42.900211 40.313263a182.703158 182.703158 0 0 1 22.528 50.283789H1077.894737c18.863158 0 36.271158 9.485474 45.648842 24.791579a47.104 47.104 0 0 1 0 49.637053 53.463579 53.463579 0 0 1-45.648842 24.791579h-0.700632z"  horiz-adv-x="1131" />

    
    <glyph glyph-name="shangchuan-moren" unicode="&#58933;" d="M968.848235-125.440052H54.793373c-29.490595 0-53.758898 23.90991-53.758898 53.042112 0 29.081004 24.268302 52.990914 53.758898 52.990914h913.901265c29.541794 0 53.758898-23.90991 53.758898-52.990914 0-29.183402-24.063507-53.042113-53.605301-53.042112zM107.528292 244.574762v-318.150278c0-29.132203-24.217104-52.990914-53.758898-52.990913-29.541794 0-53.758898 23.858711-53.758898 52.990913v318.150278c0 29.132203 24.217104 52.990914 53.758898 52.990914 29.541794 0 53.758898-23.858711 53.758898-52.990914z m915.078841 0v-318.150278c0-29.132203-24.217104-52.990914-53.758898-52.990913-29.541794 0-53.758898 23.858711-53.758898 52.990913v318.150278c0 29.132203 24.217104 52.990914 53.758898 52.990914 29.541794 0 53.758898-23.858711 53.758898-52.990914zM565.042113 847.442403v-673.522192c0-26.521056-24.268302-48.127013-53.758898-48.127014-29.592993 0-53.758898 21.605957-53.758898 48.127014V847.442403c0 26.521056 24.165905 48.127013 53.758898 48.127014 29.592993 0 53.758898-21.605957 53.758898-48.127014zM854.367381 625.392555L581.937766 880.77292a59.595578 59.595578 0 0 1-44.543087 14.950094 57.342824 57.342824 0 0 1-44.543086-14.950094L220.985166 625.392555a49.048595 49.048595 0 0 1 0-72.702509c21.503559-19.609198 56.677238-20.121188 77.56641 0l238.791904 223.790612 239.355094-223.739413c21.503559-20.172386 56.728437-20.172386 77.617609 0a49.150992 49.150992 0 0 1 0.102397 72.702509z"  horiz-adv-x="1024" />

    
    <glyph glyph-name="fabuguanli-moren" unicode="&#58913;" d="M815.891661-11.678544a16.588095 16.588095 0 0 0-8.806026-12.953049 15.871325 15.871325 0 0 0-15.461743 0.307187l-263.873585 138.080531a30.411508 30.411508 0 0 1-8.498839 2.815881 30.769892 30.769892 0 0 1-38.039983-14.335391L413.937544-21.508526v103.368407c0 42.289403 14.437786 83.247662 40.753468 115.655885l477.061325 587.955811-115.860676-797.150121zM965.030922 880.904322a76.335956 76.335956 0 0 1-82.58209 5.478167L67.584264 439.937463A81.916519 81.916519 0 0 1 25.602048 367.543739a81.916519 81.916519 0 0 1 42.494194-72.035338l212.47097-113.556774a30.36031 30.36031 0 0 1 31.742651 0.921561 32.613014 32.613014 0 0 1 14.59138 29.18276 32.357025 32.357025 0 0 1-17.612052 27.237242l-212.47097 113.556774a16.997678 16.997678 0 0 0-8.806025 14.949765c0 6.297332 3.379056 12.082686 8.754827 15.000962L865.246363 803.800398 406.923442 239.241992A249.998975 249.998975 0 0 1 351.425001 81.911079v-160.095596a48.842724 48.842724 0 0 1 48.381943-49.764285c17.253667 0 33.227388 9.727587 41.572633 25.394121l80.175793 147.04015 241.65373-125.844251c22.57824-12.287478 49.559494-12.492269 72.342525-0.511978a81.40454 81.40454 0 0 1 42.340601 60.618223l119.546919 823.517001A82.377299 82.377299 0 0 1 965.08212 880.904322z"  horiz-adv-x="1024" />

    
    <glyph glyph-name="chenggong" unicode="&#58914;" d="M422.912 39.857231l-299.716923 309.563077 76.878769 62.621538 173.292308-138.043077c71.049846 85.740308 228.667077 255.921231 446.227692 391.207385l18.274462-42.850462c-199.68-186.289231-363.047385-448.472615-414.956308-582.498461M512 896C229.297231 896 0 666.781538 0 384s229.297231-512 512-512c282.781538 0 512 229.218462 512 512S794.781538 896 512 896"  horiz-adv-x="1024" />

    
    <glyph glyph-name="zhankai-cemian" unicode="&#58915;" d="M1335.874783 383.24313c0 40.381217 35.973565 73.238261 80.228174 73.238261 44.032 0 80.005565-32.678957 80.005565-73.238261 0-40.514783-35.973565-73.238261-80.005565-73.23826-44.432696-0.178087-80.228174 32.678957-80.228174 73.23826M504.787478-106.941217l-474.423652 433.285565c-10.729739 7.746783-19.233391 17.764174-24.041739 29.696-0.178087 0.890435-0.356174 1.380174-0.356174 1.914435-3.472696 7.034435-4.630261 14.781217-5.030956 22.483478 0 1.068522-0.934957 2.270609-0.934957 3.33913 0 2.092522 1.513739 3.873391 1.513739 5.965913a51.110957 51.110957 0 0 0 3.294609 13.712696c1.513739 5.431652 4.006957 10.373565 6.722782 15.270957 1.736348 2.982957 4.006957 5.787826 6.366609 8.592695 2.092522 2.493217 3.072 5.654261 5.921391 7.92487l480.968348 439.429565c30.942609 28.449391 81.341217 28.449391 111.883131 0 30.98713-28.137739 30.98713-74.128696 0-102.578087l-345.933913-316.104348L1042.253913 455.991652c44.210087 0 80.584348-32.857043 80.584348-73.282782 0-40.381217-36.151652-73.238261-80.584348-73.238261l-768.979478 0L616.626087-4.541217c30.98713-27.91513 30.98713-74.128696 0-102.4-30.541913-28.048696-80.940522-28.048696-111.88313 0"  horiz-adv-x="1869" />

    
    <glyph glyph-name="fenzu" unicode="&#58916;" d="M942.713905-62.512762H79.872a16.286476 16.286476 0 0 0-15.945143 16.091429V516.778667h894.780953v-563.2c0-8.630857-7.314286-16.091429-15.993905-16.091429zM161.304381 814.470095c0 26.477714 21.455238 48.079238 47.932952 48.079238h1.219048c26.38019 0 47.932952-21.601524 47.932952-48.079238v-142.531047a48.079238 48.079238 0 0 0-47.932952-48.079238h-1.219048a48.030476 48.030476 0 0 0-47.932952 48.079238V814.470095z m602.794667 0c0 26.477714 21.455238 48.079238 47.932952 48.079238h1.219048c26.428952 0 47.932952-21.601524 47.932952-48.079238v-142.531047a48.079238 48.079238 0 0 0-47.932952-48.079238h-1.219048a48.030476 48.030476 0 0 0-47.932952 48.079238V814.470095z m178.614857-14.726095h-49.590857v14.726095c0 44.080762-35.937524 80.11581-79.872 80.11581h-1.219048c-43.885714 0-79.872-36.08381-79.872-80.11581v-14.726095h-441.782857v14.726095C290.328381 858.550857 254.342095 894.537143 210.407619 894.537143h-1.219048c-43.885714 0-79.872-36.08381-79.872-80.11581v-14.726095H79.872c-43.885714 0-79.872-36.08381-79.872-80.115809v-766.049524c0-44.129524 35.937524-80.164571 79.872-80.164572h862.841905c43.885714 0 79.872 36.08381 79.872 80.164572V719.62819c0 44.032-35.937524 80.11581-79.872 80.11581zM690.224762 67.047619H828.952381v69.778286h-138.727619V67.047619z m-247.02781 0h140.970667v69.778286H443.245714V67.047619zM195.047619 67.047619h142.140952v69.778286H195.047619V67.047619z m495.177143 137.411048H828.952381v66.511238h-138.727619v-66.511238z m-247.02781 0h140.970667v66.511238H443.245714v-66.511238z m-248.149333 0h142.140952v66.511238H195.047619v-66.511238z m495.177143 136.289523H828.952381V408.380952h-138.727619v-67.632762z m-247.02781 0h140.970667V408.380952H443.245714v-67.632762z m-248.149333 0h142.140952V408.380952H195.047619v-67.632762z"  horiz-adv-x="1024" />

    
    <glyph glyph-name="guizeshezhi-moren" unicode="&#58917;" d="M432.774737-27.755789H138.509474c-19.132632 0-34.654316 14.282105-34.654316 31.959578V767.730526c0 17.623579 15.521684 31.959579 34.654316 31.959579h692.547368c19.078737 0 34.600421-14.336 34.600421-31.959579V496.101053c0-12.719158 5.443368-24.899368 15.198316-33.845895 9.701053-9.000421 22.959158-14.012632 36.702316-14.012632 28.564211 0.323368 51.577263 21.557895 51.954526 47.858527V767.730526c0 70.602105-61.978947 127.730526-138.509474 127.730527H138.509474C101.861053 895.461053 66.613895 882.095158 40.636632 858.112A122.987789 122.987789 0 0 1 0 767.730526v-766.760421c0-70.602105 61.978947-127.730526 138.509474-127.730526h294.265263c28.564211 0.323368 51.631158 21.557895 52.008421 47.858526a45.810526 45.810526 0 0 1-13.958737 36.001684 54.110316 54.110316 0 0 1-37.995789 15.090527M259.718737 707.045053h380.874105c34.600421 0 51.900632-16.006737 51.900632-47.966316 0-31.905684-17.246316-47.912421-51.900632-47.912421H259.718737c-34.654316 0-51.954526 16.006737-51.954526 47.966316 0 31.905684 17.300211 47.912421 51.954526 47.912421M268.503579 517.658947h175.804632c35.139368 0 52.709053-16.545684 52.709052-49.583158 0-33.145263-17.569684-49.637053-52.709052-49.637052H268.503579c-35.193263 0-52.762947 16.491789-52.762947 49.583158 0 33.091368 17.569684 49.583158 52.762947 49.583158M813.487158 67.799579c-58.260211 0-105.472 44.409263-105.472 99.22021s47.211789 99.220211 105.472 99.220211c58.206316 0 105.472-44.409263 105.472-99.166316 0-54.864842-47.211789-99.274105-105.472-99.274105z m263.706947 152.144842h-60.469894c-4.850526 17.946947-12.449684 35.031579-22.528 50.930526l42.90021 39.720421a48.774737 48.774737 0 0 1 0 70.76379 55.134316 55.134316 0 0 1-74.536421 0l-42.900211-40.367158a207.386947 207.386947 0 0 1-53.463578 21.180632V418.492632c0 27.378526-23.605895 49.583158-52.709053 49.583157s-52.762947-22.204632-52.762947-49.583157v-56.266106a211.914105 211.914105 0 0 1-54.110316-21.180631l-42.199579 40.421052a55.349895 55.349895 0 0 1-74.913684-0.377263 47.750737 47.750737 0 0 1 0.377263-70.440421l42.145684-39.720421a186.314105 186.314105 0 0 1-22.474105-50.930526H549.726316c-29.103158 0-52.709053-22.204632-52.709053-49.583158 0-27.432421 23.605895-49.583158 52.762948-49.583158h60.469894c4.850526-17.785263 12.449684-34.654316 22.528-50.337684l-42.199579-40.313263a47.589053 47.589053 0 0 1-15.737263-35.085474c0-13.204211 5.658947-25.869474 15.737263-35.031579a55.134316 55.134316 0 0 1 74.536421 0l42.199579 40.313263c16.869053-9.431579 35.085474-16.599579 54.110316-21.180631v-56.858948c0-27.432421 23.605895-49.583158 52.762947-49.583158 29.103158 0 52.762947 22.150737 52.762948 49.583158v56.858948a207.494737 207.494737 0 0 1 53.409684 21.180631l42.900211-40.313263c20.803368-18.216421 53.194105-17.731368 73.296842 1.185684a47.535158 47.535158 0 0 1 1.239579 68.931369l-42.900211 40.313263a182.703158 182.703158 0 0 1 22.528 50.283789H1077.894737c18.863158 0 36.271158 9.485474 45.648842 24.791579a47.104 47.104 0 0 1 0 49.637053 53.463579 53.463579 0 0 1-45.648842 24.791579h-0.700632z"  horiz-adv-x="1131" />

    
    <glyph glyph-name="kuangxuan" unicode="&#58919;" d="M865.28 543.744L466.944 145.486769a55.689846 55.689846 0 0 0-78.769231 0L158.72 374.744615a55.768615 55.768615 0 0 0 78.769231 78.769231l190.030769-189.833846 358.912 358.912a55.729231 55.729231 0 1 0 78.769231-78.808615l0.039384-0.039385zM924.238769 896H99.721846A99.721846 99.721846 0 0 1 0 796.278154v-824.556308A99.721846 99.721846 0 0 1 99.721846-128h824.556308A99.721846 99.721846 0 0 1 1024-28.278154V796.278154A99.721846 99.721846 0 0 1 924.278154 896z"  horiz-adv-x="1024" />

    
    <glyph glyph-name="lianhejiangchengmoren" unicode="&#58920;" d="M493.568-63.453867c-64.853333 0-128.648533 15.906133-185.6512 46.2848-13.653333-18.0224-29.934933-33.928533-48.401067-47.172266a462.336 462.336 0 0 1 468.206934 0 225.655467 225.655467 0 0 0-48.401067 47.172266 394.1376 394.1376 0 0 0-185.719467-46.2848M36.522667 321.4336v-3.413333a226.6112 226.6112 0 0 0 66.082133 17.066666c4.676267 128.3072 74.001067 245.8624 184.900267 313.480534A217.224533 217.224533 0 0 0 269.653333 713.147733C125.781333 633.514667 36.693333 483.84 36.522667 321.4336M717.585067 713.147733a217.258667 217.258667 0 0 0-17.954134-64.580266c110.933333-67.515733 180.4288-185.002667 185.2416-313.275734 22.7328-2.389333 45.021867-8.192 65.979734-17.237333v3.413333c-0.170667 162.4064-89.326933 312.1152-233.2672 391.68M154.7264 214.016c43.383467 0 78.5408-34.645333 78.5408-77.346133 0-42.666667-35.157333-77.312-78.5408-77.312-43.383467 0-78.5408 34.645333-78.5408 77.312 0 42.7008 35.157333 77.312 78.5408 77.346133z m355.7376 200.704c43.349333 0 78.5408-34.577067 78.5408-77.277867s-35.157333-77.312-78.5408-77.312c-43.383467 0-78.5408 34.6112-78.5408 77.312 0 42.666667 35.157333 77.277867 78.5408 77.312z m-78.5408 327.8848c0 42.666667 35.157333 77.312 78.5408 77.312 43.349333 0 78.5408-34.6112 78.5408-77.312 0-42.7008-35.157333-77.312-78.5408-77.312-43.349333 0-78.506667 34.6112-78.5408 77.312zM866.747733 214.016c43.349333 0 78.5408-34.6112 78.5408-77.312 0-42.666667-35.157333-77.312-78.5408-77.312-43.383467 0-78.574933 34.6112-78.574933 77.312 0.068267 42.5984 35.089067 77.1072 78.336 77.277867l0.238933 0.034133z m-712.021333-229.9904a155.7504 155.7504 0 0 1 126.600533 64.443733 150.562133 150.562133 0 0 1 19.592534 138.9568l91.272533 51.2a155.7504 155.7504 0 0 1 116.462933-54.101333 155.886933 155.886933 0 0 1 117.76 51.370667l92.672-52.1216c-24.814933-74.376533 11.264-155.170133 83.6608-187.528534 72.430933-32.324267 157.969067-5.768533 198.4512 61.576534a151.790933 151.790933 0 0 1-40.7552 200.840533 157.5936 157.5936 0 0 1-207.2576-18.158933l-94.139733 53.077333a150.528 150.528 0 0 1-16.042667 123.153067 155.0336 155.0336 0 0 1-103.765333 70.587733v105.130667c78.062933 14.336 132.5056 84.48 126.088533 162.4064-6.417067 77.9264-71.645867 138.478933-151.074133 140.219733-79.394133 1.774933-147.319467-55.808-157.320533-133.358933-10.001067-77.585067 41.198933-150.050133 118.545066-167.8336v-107.554134a154.794667 154.794667 0 0 1-98.816-71.850666 150.4256 150.4256 0 0 1-14.609066-120.081067l-94.3104-53.077333a156.808533 156.808533 0 0 1-187.562667 28.8768c-61.883733-33.5872-92.842667-104.106667-75.298133-171.485867 17.544533-67.3792 79.189333-114.551467 149.845333-114.688z"  horiz-adv-x="1024" />

    
    <glyph glyph-name="sanjiao" unicode="&#58921;" d="M0 896h1024v-1024H0z"  horiz-adv-x="2048" />

    
    <glyph glyph-name="tianjia" unicode="&#58922;" d="M821.9648 72.942933c-83.933867-84.036267-193.399467-127.863467-310.1696-127.863466-116.770133 0-226.235733 43.8272-310.1696 127.863466-171.52 171.690667-171.52 449.399467 0 621.124267 83.933867 84.002133 193.399467 127.863467 310.1696 127.863467 116.736 0 226.235733-43.861333 310.1696-127.863467 171.52-171.7248 171.52-449.399467 0-621.124267m51.0976 672.256C774.485333 840.192 646.826667 895.010133 511.7952 895.010133A513.706667 513.706667 0 0 1 150.528 745.198933a509.815467 509.815467 0 0 1 0-723.387733A513.706667 513.706667 0 0 1 511.7952-128c134.997333 0 266.376533 54.818133 361.2672 149.8112a509.8496 509.8496 0 0 1 0 723.387733M565.111467 402.978133V586.888533C565.111467 608.494933 550.7072 622.933333 529.066667 622.933333c-21.640533 0-36.0448-14.4384-36.0448-36.0448v-183.9104H309.111467C287.505067 402.978133 273.066667 388.573867 273.066667 366.933333c0-10.820267 3.618133-18.0224 10.820266-25.258666 7.202133-7.168 14.404267-10.786133 25.258667-10.786134h183.876267v-183.9104c0-10.820267 3.584-18.0224 10.820266-25.258666 7.168-7.168 14.404267-10.786133 25.224534-10.786134 21.640533 0 36.0448 14.4384 36.0448 36.0448v183.9104h183.9104c21.6064 0 36.0448 14.404267 36.0448 36.0448 0 21.640533-14.4384 36.0448-36.0448 36.0448h-183.9104z"  horiz-adv-x="1024" />

    
    <glyph glyph-name="xitongguanli-moren" unicode="&#58923;" d="M215.823059-79.209412c0 26.925176 21.564235 48.730353 48.188235 48.730353H455.378824c17.227294 0 33.069176-9.336471 41.562352-24.395294 8.493176-15.058824 8.493176-33.731765 0-48.790588a47.826824 47.826824 0 0 0-41.562352-24.335059H264.011294a47.585882 47.585882 0 0 0-34.093176 14.215529 48.850824 48.850824 0 0 0-14.095059 34.514824zM1102.787765 578.921412c0-17.468235-9.155765-33.551059-23.973647-42.224941a47.405176 47.405176 0 0 0-47.887059 0 48.911059 48.911059 0 0 0-23.973647 42.224941V774.023529a24.274824 24.274824 0 0 1-23.973647 24.45553H119.808a24.335059 24.335059 0 0 1-23.973647-24.45553v-585.185882c0-13.372235 10.661647-24.455529 23.973647-24.455529h215.823059c17.167059 0 33.008941-9.396706 41.562353-24.395294 8.493176-15.058824 8.493176-33.731765 0-48.790589a47.826824 47.826824 0 0 0-41.562353-24.335059H48.067765a47.646118 47.646118 0 0 0-33.972706 14.21553 49.091765 49.091765 0 0 0-14.095059 34.514823V847.269647C0 874.194824 21.564235 896 48.067765 896H1054.72c12.769882 0 25.057882-5.12 33.972706-14.215529 9.035294-9.216 14.095059-21.564235 14.095059-34.514824v-268.288z m-218.352941-705.355294a47.585882 47.585882 0 0 0-35.117177 15.179294c-11.625412 12.830118-48.188235 46.381176-78.185412 46.381176-29.816471 0-66.981647-33.671529-77.583059-45.417412a47.826824 47.826824 0 0 0-34.93647-15.058823 43.369412 43.369412 0 0 0-17.829647 3.614118l-0.90353 0.421647-91.196235 51.862588-0.963765 0.722823a45.056 45.056 0 0 0-14.637176 53.729883c0 0.120471 8.432941 19.757176 8.432941 37.647059a97.581176 97.581176 0 0 1-96.677647 98.304H440.922353c-15.179294 0-27.708235 13.854118-31.683765 35.056941a471.823059 471.823059 0 0 0-7.830588 74.089412c0 31.924706 7.408941 72.282353 7.649882 74.089411 4.035765 21.504 16.685176 35.478588 32.225883 35.056941h3.19247c53.428706 0.120471 96.557176 43.971765 96.677647 98.304 0 17.889882-8.432941 37.345882-8.432941 37.647059a44.694588 44.694588 0 0 0 14.817883 53.609412l0.963764 0.722824 96.256 53.729882 1.024 0.421647a48.368941 48.368941 0 0 0 52.585412-11.083294c11.444706-12.227765 47.405176-43.610353 76.498824-43.610353 28.852706 0 64.632471 30.840471 75.956705 42.767059a48.549647 48.549647 0 0 0 52.766118 10.721882l0.903529-0.421647 92.943059-52.525176 0.90353-0.722824c16.685176-11.745882 22.889412-34.936471 14.637176-53.729882 0-0.120471-8.372706-19.636706-8.372706-37.526589 0-54.272 43.309176-98.183529 96.677647-98.304h3.192471c15.540706 0.421647 28.250353-13.552941 32.225882-35.056941 0.240941-1.807059 7.710118-42.224941 7.710118-74.089411 0-31.924706-7.469176-72.463059-7.830588-74.089412-4.035765-21.504-16.685176-35.418353-32.225883-35.056941h-3.19247c-53.428706-0.120471-96.557176-43.971765-96.677647-98.304 0-17.889882 8.432941-37.526588 8.432941-37.647059 8.071529-19.275294 1.927529-41.562353-14.817882-53.729883l-0.963765-0.722823-94.509177-53.007059-0.903529-0.481882a43.971765 43.971765 0 0 0-17.347765-3.493647z m-22.226824 108.423529a4.758588 4.758588 0 0 1 2.288941-0.481882h0.120471l70.294588 39.514353a122.398118 122.398118 0 0 0-9.456941 43.730823c0 60.536471 46.622118 110.351059 106.014117 113.603765 0.783059 4.818824 5.421176 31.563294 5.421177 51.621647 0 20.178824-4.638118 46.863059-5.421177 51.561412-59.392 3.252706-105.893647 53.127529-106.014117 113.664 0 20.299294 7.830588 39.755294 9.456941 43.851294l-69.089882 38.972235h-0.301177a5.963294 5.963294 0 0 1-2.650353-0.602353c-7.830588-8.011294-16.504471-15.36-25.539764-21.865412-21.323294-15.299765-41.441882-23.009882-59.934118-23.009882-18.672941 0-38.851765 7.830588-60.29553 23.431529a184.259765 184.259765 0 0 0-25.72047 22.347295 6.023529 6.023529 0 0 1-2.650353 0.662588h-0.240941l-71.68-40.056471c1.807059-4.096 9.456941-23.491765 9.456941-43.730823-0.120471-60.536471-46.561882-110.411294-105.953882-113.664-0.783059-4.698353-5.421176-31.503059-5.421177-51.561412 0-20.178824 4.457412-46.863059 5.421177-51.742118 59.392-3.252706 105.833412-53.067294 106.014117-113.603764 0-20.299294-7.890824-39.755294-9.517176-43.730824l67.764706-38.550588h0.180706c1.024 0 1.807059 0.361412 2.228705 0.481882 8.011294 8.553412 16.685176 16.263529 25.961412 23.190588 21.684706 16.263529 42.345412 24.335059 61.44 24.335059 19.154824 0 40.056471-8.432941 61.861647-24.877176 14.516706-10.962824 24.636235-22.106353 25.961412-23.491765z m-88.003765 102.159059c-80.112941 0.120471-145.227294 66.258824-145.227294 147.696941 0 81.558588 65.234824 147.757176 145.227294 147.757177 80.052706 0 145.287529-66.319059 145.28753-147.757177 0-81.498353-65.114353-147.696941-145.28753-147.696941z m0 222.870588c-40.719059 0-73.728-33.551059-73.908706-75.173647 0-41.441882 33.069176-74.992941 73.908706-75.113412 40.719059 0 73.788235 33.551059 73.788236 75.113412 0 41.441882-33.069176 75.053176-73.788236 75.173647z"  horiz-adv-x="1145" />

    
    <glyph glyph-name="touxiang" unicode="&#58924;" d="M17.066667 896h1024v-1024H17.066667z"  horiz-adv-x="1228" />

    
    <glyph glyph-name="xiangshangshouqi-moren" unicode="&#58925;" d="M938.666667 896c-33.109333 0-55.210667-10.752-77.312-32.341333L33.109333 55.210667c-44.117333-43.093333-44.117333-107.776 0-150.869334a108.544 108.544 0 0 1 154.624 0l750.933334 733.013334 750.933333-733.013334a108.544 108.544 0 0 1 154.624 0c44.117333 43.093333 44.117333 107.776 0 150.869334L1015.978667 863.658667C993.877333 885.248 971.776 896 938.666667 896"  horiz-adv-x="1877" />

    
    <glyph glyph-name="xietongjianguan-moren" unicode="&#58926;" d="M512 523.434667c-58.743467 0-106.871467-62.429867-106.871467-139.434667 0-77.0048 48.128-139.434667 106.871467-139.434667 59.392 0 106.871467 62.429867 106.871467 139.434667 0 77.0048-47.479467 139.434667-106.837334 139.434667M733.866667 384c0-54.818133-91.2384-170.666667-221.866667-170.666667C385.1264 213.333333 290.133333 327.816533 290.133333 384s94.993067 170.666667 221.866667 170.666667c131.242667-0.682667 221.866667-114.4832 221.866667-170.666667M536.541867 369.2544c-16.042667 0-29.525333 16.4864-29.525334 36.932267 0 20.445867 12.834133 36.932267 29.525334 36.932266s29.525333-16.4864 29.525333-36.932266c0-20.48-13.482667-36.932267-29.525333-36.932267m-24.405334 89.668267c-34.645333 0-62.907733-36.2496-62.907733-80.452267 0-44.817067 28.2624-80.452267 62.907733-80.452267 34.679467 0 62.941867 36.283733 62.941867 80.452267 0.6144 44.202667-27.648 80.452267-62.941867 80.452267M848.554667 232.721067s-53.282133-97.5872-129.706667-153.634134c-80.213333-58.709333-179.746133-96.938667-204.117333-96.938666-24.405333 0-125.8496 40.209067-206.7456 98.9184-75.093333 55.3984-127.112533 151.6544-127.112534 151.6544L155.204267 645.563733 514.730667 779.434667l359.492266-133.870934-25.668266-412.842666zM512.136533 894.839467L51.2 723.387733l32.768-529.578666s66.082133-123.2896 162.4064-194.56C349.730133-76.526933 480.0512-128 511.488-128c31.470933 0 158.583467 49.493333 261.290667 124.654933 97.621333 71.8848 166.2976 197.154133 166.2976 197.154134l32.733866 529.578666L512.136533 894.839467z"  horiz-adv-x="1024" />

    
    <glyph glyph-name="xiangxia-zhankai-moren" unicode="&#58927;" d="M938.552915-127.829362c-33.103816 0-55.201466 10.750208-77.299117 32.335944L33.146483 712.819863C-10.963499 755.906016-10.963499 820.577904 33.146483 863.578737a108.525912 108.525912 0 0 0 154.598233 0l750.808199-732.891185 750.808199 732.891185a108.525912 108.525912 0 0 0 154.598233 0c44.109982-43.086152 44.109982-107.75804 0-150.844193l-828.107315-808.313281c-22.09765-21.585736-44.195301-32.335944-77.299117-32.335944"  horiz-adv-x="1877" />

    
    <glyph glyph-name="zhedie" unicode="&#58928;" d=""  horiz-adv-x="1869" />

    
    <glyph glyph-name="yujingguanli-moren" unicode="&#58929;" d=""  horiz-adv-x="1139" />

    
    <glyph glyph-name="yijianfankui-moren" unicode="&#58930;" d="M654.651015 729.357474l51.738947 52.493473 176.505263-175.696842-51.738947-52.547368zM762.224909 860.591158a121.694316 121.694316 0 0 0 174.618948-3.125895l24.953263-26.300631c23.174737-24.360421 35.786105-57.236211 35.247158-91.297685a129.347368 129.347368 0 0 0-38.319158-90.00421l-409.923368-403.240421a122.179368 122.179368 0 0 0-91.297685-35.301053l-111.292631 5.066105a36.055579 36.055579 0 0 0-33.953684 36.486737V363.466105a129.347368 129.347368 0 0 0 38.319157 92.26779L762.171015 860.591158h0.053894zM461.600067 287.582316a49.475368 49.475368 0 0 1 36.97179 14.282105l409.923368 403.240421 0.269474 0.323369a52.709053 52.709053 0 0 1 0.970105 73.081263l-24.953263 26.300631a49.259789 49.259789 0 0 1-70.709895 1.239579L402.477541 401.138526a52.385684 52.385684 0 0 1-15.521684-37.349052v-72.81179l74.590316-3.395368h0.053894zM476.906173 785.030737c13.312 0 25.653895-7.868632 32.336842-20.641684a45.271579 45.271579 0 0 0 0-41.391158 36.810105 36.810105 0 0 0-32.336842-20.641684H163.723857c-34.330947 0-62.194526-30.881684-62.194526-68.931369v-609.818947c0-38.049684 27.863579-68.931368 62.194526-68.931369h639.461052c34.330947 0 62.194526 30.881684 62.194527 68.931369V459.668211c0 14.767158 7.114105 28.402526 18.647579 35.786105a34.169263 34.169263 0 0 0 37.295158 0c11.533474-7.383579 18.647579-21.018947 18.647579-35.786105v-436.062316c0-83.752421-61.224421-151.605895-136.784843-151.605895H163.723857C88.163436-128 26.939015-60.092632 26.939015 23.605895V633.424842c0 83.752421 61.224421 151.605895 136.784842 151.605895h313.128421z"  horiz-adv-x="1024" />

    
    <glyph glyph-name="yichangminglu" unicode="&#58931;" d="M618.325333-128H155.079111c-70.087111 0-118.897778 31.744-118.897778 108.487111V792.803556C36.181333 845.710222 91.079111 896 155.079111 896h786.261333c57.912889 0 118.897778-50.289778 118.897778-103.196444v-486.855112c0-13.255111-21.390222-26.453333-36.636444-26.453333-15.189333 0-36.522667 13.198222-36.522667 26.453333V792.803556c0 18.545778-21.333333 37.034667-42.666667 37.034666H155.079111c-21.333333 0-42.666667-18.488889-42.666667-37.034666v-817.607112c0-21.162667 21.333333-37.034667 42.666667-37.034666h457.102222c15.246222 0 30.492444-18.545778 30.492445-31.744-3.072-18.545778-9.102222-34.417778-24.348445-34.417778zM483.726222 181.361778H228.920889c-11.662222 0-23.324444 18.773333-23.324445 32.256 0 13.425778 11.662222 32.199111 23.324445 32.199111h254.805333c11.662222 0 23.324444-13.425778 23.324445-34.929778-2.275556-16.099556-13.994667-29.582222-23.324445-29.582222z m247.068445 225.678222H224.597333c-13.596444 0-27.192889 18.773333-27.192889 32.256 0 13.425778 13.596444 32.199111 27.192889 32.199111h508.871111c13.653333 0 27.249778-18.773333 27.249778-32.199111 0-16.156444-16.327111-32.256-29.923555-32.256z m5.404444 223.004444h-503.466667c-13.596444 0-27.192889 18.773333-27.192888 32.256 0 13.425778 13.653333 32.199111 27.249777 32.199112h508.871111c13.596444 0 27.192889-18.773333 27.192889-32.199112-2.730667-13.482667-16.327111-32.256-32.654222-32.256zM816.469333-56.888889c-104.391111 0-189.326222 81.066667-189.326222 180.622222 0 99.612444 84.935111 180.679111 189.326222 180.679111 104.448 0 189.383111-81.009778 189.383111-180.565333 0-99.612444-84.935111-180.679111-189.383111-180.679111z m0 320.568889c-80.839111 0-146.602667-62.748444-146.602666-139.832889 0-77.084444 65.820444-139.889778 146.602666-139.889778 80.896 0 146.602667 62.805333 146.602667 139.889778s-65.706667 139.832889-146.602667 139.832889zM618.325333-128H155.079111c-70.087111 0-118.897778 31.744-118.897778 108.487111V792.803556C36.181333 845.710222 91.079111 896 155.079111 896h786.261333c57.912889 0 118.897778-50.289778 118.897778-103.196444v-486.855112c0-13.255111-21.390222-26.453333-36.636444-26.453333-15.189333 0-36.522667 13.198222-36.522667 26.453333V792.803556c0 18.545778-21.333333 37.034667-42.666667 37.034666H155.079111c-21.333333 0-42.666667-18.488889-42.666667-37.034666v-817.607112c0-21.162667 21.333333-37.034667 42.666667-37.034666h457.102222c15.246222 0 30.492444-18.545778 30.492445-31.744-3.072-18.545778-9.102222-34.417778-24.348445-34.417778zM483.726222 181.361778H228.920889c-11.662222 0-23.324444 18.773333-23.324445 32.256 0 13.425778 11.662222 32.199111 23.324445 32.199111h254.805333c11.662222 0 23.324444-13.425778 23.324445-34.929778-2.275556-16.099556-13.994667-29.582222-23.324445-29.582222z m247.068445 225.678222H224.597333c-13.596444 0-27.192889 18.773333-27.192889 32.256 0 13.425778 13.596444 32.199111 27.192889 32.199111h508.871111c13.653333 0 27.249778-18.773333 27.249778-32.199111 0-16.156444-16.327111-32.256-29.923555-32.256z m5.404444 223.004444h-503.466667c-13.596444 0-27.192889 18.773333-27.192888 32.256 0 13.425778 13.653333 32.199111 27.249777 32.199112h508.871111c13.596444 0 27.192889-18.773333 27.192889-32.199112-2.730667-13.482667-16.327111-32.256-32.654222-32.256zM796.444444 71.111111a28.444444 28.444444 0 1 1 56.888889 0 28.444444 28.444444 0 0 1-56.888889 0zM824.888889 184.888889m28.444444 0l0 0q28.444444 0 28.444445-28.444445l0 0q0-28.444444-28.444445-28.444444l0 0q-28.444444 0-28.444444 28.444444l0 0q0 28.444444 28.444444 28.444445Z"  horiz-adv-x="1080" />

    
    <glyph glyph-name="logo" unicode="&#58932;" d="M506.556632 38.076632l238.645894 353.360842-71.221894 99.597473-247.107369-372.574315-220.133052 7.491368 0.754526 1.024-153.19579 248.778105H53.894737L408.980211 895.838316h-0.026948 0.053895L409.061053 896l0.107789-0.134737h234.442105l108.975158-165.106526h-237.621894L271.791158 375.754105h-0.592842l55.70021-81.758316 244.008421 341.234527 6.144-8.569263-6.278736 8.811789h231.585684l167.666526-249.370947H970.105263l-0.053895-0.053895 0.053895-0.080842h-0.080842L613.564632-127.784421h-218.812632l-0.134737-0.215579-109.298526 166.561684z"  horiz-adv-x="1024" />

    
    <glyph glyph-name="PDF" unicode="&#58934;" d="M528.099556 439.864889c-15.701333 0-25.827556-1.479111-31.857778-3.015111v-221.980445C502.328889 213.333333 512 213.333333 520.704 213.333333 584.305778 212.878222 625.777778 251.107556 625.777778 332.231111c0.455111 70.485333-37.319111 107.690667-97.678222 107.690667m-216.689778-48.810667c0 31.232-19.797333 49.834667-54.840889 49.834667a109.795556 109.795556 0 0 1-29.013333-3.015111v-100.181334c5.973333-1.479111 13.368889-1.991111 23.495111-1.991111 37.319111 0 60.359111 20.593778 60.359111 55.352889M902.940444 408.689778h-115.655111v-68.551111h108.032v-55.182223h-108.088889v-120.490666h-68.266666V464.213333h183.978666v-55.580444zM179.484444-76.970667h665.031112v193.422223H179.484444v-193.422223z m-30.776888 241.436445v295.822222c20.935111 3.527111 50.460444 6.257778 91.989333 6.257778 41.927111 0 71.850667-8.021333 91.932444-24.064 19.228444-15.132444 32.142222-40.049778 32.142223-69.404445s-9.784889-54.272-27.648-71.168c-23.210667-21.788444-57.628444-31.630222-97.848889-31.630222-8.874667 0-16.952889 0.455111-23.153778 1.365333v-107.235555H148.707556z m525.539555 157.013333c0-57.400889-20.992-96.995556-50.062222-121.457778-31.630222-26.225778-79.872-38.684444-138.808889-38.684444-35.271111 0-60.245333 2.218667-77.255111 4.437333V460.288c25.031111 3.982222 57.628444 6.257778 92.046222 6.257778 57.116444 0 94.151111-10.24 123.221333-32.085334 31.232-23.096889 50.858667-60.017778 50.858667-112.981333zM179.484444 855.836444h466.830223v-205.425777a20.024889 20.024889 0 0 1 20.195555-20.081778h178.062222V529.635556H179.427556V855.836444z m729.998223-326.144h-24.632889V648.362667c0 0.739556-0.113778 1.479111-0.227556 2.275555a19.740444 19.740444 0 0 1-4.778666 12.970667L681.642667 889.116444 681.528889 889.287111a19.911111 19.911111 0 0 1-9.329778 5.802667L671.118222 895.431111a20.252444 20.252444 0 0 1-4.608 0.568889H179.484444a40.277333 40.277333 0 0 1-40.334222-40.163556v-326.087111h-24.632889A57.742222 57.742222 0 0 1 56.888889 472.291556v-298.439112c0-31.687111 25.770667-57.400889 57.628444-57.400888h24.632889v-204.288c0-22.186667 18.090667-40.163556 40.334222-40.163556h665.031112c22.186667 0 40.334222 18.033778 40.334222 40.163556v204.288h24.632889A57.457778 57.457778 0 0 1 967.111111 173.909333V472.291556a57.287111 57.287111 0 0 1-57.628444 57.344z"  horiz-adv-x="1024" />

    
    <glyph glyph-name="falvfagui-shouye" unicode="&#58935;" d="M617.931034 366.344828h388.413794c0-92.477793-73.445517-176.551724-194.171587-176.551725C694.130759 189.793103 617.931034 273.831724 617.931034 366.344828z m-211.862068 0c0-92.477793-73.516138-176.551724-194.136276-176.551725C93.819586 189.793103 17.655172 273.867034 17.655172 366.344828c-0.070621-0.247172 388.413793-0.247172 388.413794 0zM790.49269 744.236138l-139.793656-311.366621h-40.606896l149.115586 329.869242h-230.329379v-770.471725c47.563034-1.871448 289.544828-80.578207 289.544827-80.578206V-128H167.688828v42.125241s242.370207 78.106483 279.552 78.106483V762.597517H229.552552l149.150896-329.728H337.990621L198.267586 744.236138l-139.934896-311.366621H17.655172l150.033656 333.329655V804.652138h250.279724c0 50.281931 33.615448 91.347862 72.809931 91.347862 41.524966 0 72.880552-43.431724 72.880551-91.347862h254.834759v-32.979862L971.034483 432.869517h-40.818759l-139.723034 311.366621z"  horiz-adv-x="1024" />

    
    <glyph glyph-name="gailan" unicode="&#58936;" d="M945.208889 344.632889h-315.050667c-43.349333 0-78.791111-35.441778-78.791111-78.791111v-315.050667c0-43.349333 35.441778-78.791111 78.791111-78.791111h315.050667c43.349333 0 78.791111 35.441778 78.791111 78.791111v315.050667c0 43.349333-35.441778 78.791111-78.791111 78.791111z m-315.050667-393.841778h315.050667v315.050667h-315.050667v-315.050667zM393.841778 344.632889H78.791111C35.441778 344.632889 0 309.191111 0 265.841778v-315.050667C0-92.558222 35.441778-128 78.791111-128h315.050667c43.349333 0 78.791111 35.441778 78.791111 78.791111v315.050667c0 43.349333-35.441778 78.791111-78.791111 78.791111z m-315.050667-393.841778h315.050667v315.050667H78.791111v-315.050667zM787.683556 896a236.999111 236.999111 0 0 1-236.316445-236.316444v-236.316445h236.316445A236.999111 236.999111 0 0 1 1024 659.683556 236.999111 236.999111 0 0 1 787.683556 896z m0-78.791111a157.980444 157.980444 0 0 0 157.582222-157.525333 157.980444 157.980444 0 0 0-157.582222-157.525334h-157.582223v157.582222a157.980444 157.980444 0 0 0 157.582223 157.468445zM393.841778 896H78.791111C35.441778 896 0 860.558222 0 817.208889v-315.050667c0-43.349333 35.441778-78.791111 78.791111-78.791111h315.050667c43.349333 0 78.791111 35.441778 78.791111 78.791111V817.208889C472.632889 860.558222 437.191111 896 393.841778 896zM78.791111 502.158222h315.050667V817.208889H78.791111v-315.050667z"  horiz-adv-x="1024" />

    
    <glyph glyph-name="guanzhuqiye-zuocedaohang" unicode="&#58937;" d="M1099.889778-49.265778h-37.888V502.328889c0 86.641778-68.266667 157.582222-151.722667 157.582222h-227.555555V738.474667C682.723556 825.059556 614.456889 896 531.000889 896H227.612444C144.156444 896 75.889778 825.059556 75.889778 738.417778v-787.569778H38.001778a35.441778 35.441778 0 0 1-26.624-11.093333 41.415111 41.415111 0 0 1-11.320889-28.330667c0-22.016 16.668444-39.424 37.944889-39.424h1061.888a35.441778 35.441778 0 0 1 26.624 11.150222 41.415111 41.415111 0 0 1 11.320889 28.387556 41.415111 41.415111 0 0 1-11.377778 28.216889 35.441778 35.441778 0 0 1-26.567111 11.093333v-0.113778zM606.890667 659.797333v-708.949333h-455.111111V738.531556c0 43.349333 34.133333 78.848 75.832888 78.848h303.388445c41.756444 0 75.889778-35.498667 75.889778-78.848v-78.734223z m379.221333-708.835555H682.723556V580.835556h227.555555c41.699556 0 75.832889-35.498667 75.832889-78.791112v-551.367111 0.170667zM493.112889 659.683556h-227.555556a35.441778 35.441778 0 0 1-26.624-11.093334 41.415111 41.415111 0 0 1-11.320889-28.330666c0-22.016 16.668444-39.424 37.944889-39.424h227.555556a35.441778 35.441778 0 0 1 26.567111 11.150222 41.415111 41.415111 0 0 1 11.320889 28.273778 41.415111 41.415111 0 0 1-11.320889 28.273777 35.441778 35.441778 0 0 1-26.567111 11.150223z m0-236.373334h-227.555556a35.441778 35.441778 0 0 1-26.624-11.093333 41.415111 41.415111 0 0 1-11.320889-28.216889c0-22.129778 16.668444-39.480889 37.944889-39.480889h227.555556a35.441778 35.441778 0 0 1 26.624 11.150222 41.415111 41.415111 0 0 1 11.264 28.330667 41.415111 41.415111 0 0 1-11.377778 28.216889 35.441778 35.441778 0 0 1-26.510222 11.093333z m0-236.259555h-227.555556a35.441778 35.441778 0 0 1-26.624-11.093334 41.415111 41.415111 0 0 1-11.320889-28.330666c0-21.902222 16.668444-39.310222 37.944889-39.310223h227.555556a35.441778 35.441778 0 0 1 26.567111 11.093334 41.415111 41.415111 0 0 1 11.320889 28.216889 41.415111 41.415111 0 0 1-11.264 28.330666 35.441778 35.441778 0 0 1-26.624 11.207111v-0.113777z m379.221333 236.259555H796.501333a35.441778 35.441778 0 0 1-26.624-11.093333 41.415111 41.415111 0 0 1-11.377777-28.216889c0-22.129778 16.782222-39.480889 38.001777-39.480889h75.832889a35.441778 35.441778 0 0 1 26.680889 11.093333 41.472 41.472 0 0 1 11.264 28.387556 41.415111 41.415111 0 0 1-11.377778 28.216889 35.441778 35.441778 0 0 1-26.567111 11.093333z m0-236.259555H796.501333a35.441778 35.441778 0 0 1-26.624-11.093334 41.415111 41.415111 0 0 1-11.377777-28.330666c0-21.902222 16.782222-39.310222 38.001777-39.310223h75.832889a35.441778 35.441778 0 0 1 26.567111 11.093334 41.415111 41.415111 0 0 1 11.377778 28.216889 41.415111 41.415111 0 0 1-11.264 28.387555 35.441778 35.441778 0 0 1-26.737778 11.150222v-0.113777z"  horiz-adv-x="1137" />

    
    <glyph glyph-name="qiyexinyongdongtai-shouye" unicode="&#58938;" d="M959.061333-0.128c0-35.328-28.586667-63.914667-63.914666-63.914667H127.872c-35.328 0-63.914667 28.586667-63.914667 63.914667V639.232a32 32 0 0 0 31.957334 32h31.957333v-639.402667a32 32 0 1 1 63.957333 0V799.146667a32 32 0 0 0 31.957334 32h703.317333a32 32 0 0 0 31.957333-32v-799.232z m-32 895.146667H223.829333a95.914667 95.914667 0 0 1-95.914666-95.914667V735.146667h-32A95.914667 95.914667 0 0 1 0 639.232v-639.36A127.872 127.872 0 0 1 127.872-128H895.146667a127.872 127.872 0 0 1 127.872 127.872V799.104A95.914667 95.914667 0 0 1 927.104 895.018667zM329.472 541.696h155.818667V699.306667H329.472v-157.653334z m-31.146667-63.104h218.112c17.237333 0 31.146667 14.122667 31.146667 31.573333V730.88a31.36 31.36 0 0 1-31.146667 31.573333H298.282667a31.36 31.36 0 0 1-31.146667-31.573333v-220.714667c0-17.450667 13.952-31.573333 31.146667-31.573333z m576.512-157.653333H282.709333a15.658667 15.658667 0 0 1-15.573333-15.786667c0-8.704 6.954667-15.786667 15.573333-15.786667h592.128a15.658667 15.658667 0 0 1 15.616 15.786667 15.658667 15.658667 0 0 1-15.616 15.786667z m0 94.592H282.709333a15.658667 15.658667 0 0 1-15.573333-15.786667c0-8.704 6.954667-15.786667 15.573333-15.786667h592.128a15.658667 15.658667 0 0 1 15.616 15.786667 15.658667 15.658667 0 0 1-15.616 15.786667z m0-189.226667h-249.301333a15.658667 15.658667 0 0 1-15.573333-15.786667c0-8.661333 6.954667-15.744 15.573333-15.744h249.301333a15.658667 15.658667 0 0 1 15.616 15.786667 15.658667 15.658667 0 0 1-15.616 15.786667z m0-94.592h-249.301333a15.658667 15.658667 0 0 1-15.573333-15.786667c0-8.704 6.954667-15.786667 15.573333-15.786666h249.301333a15.658667 15.658667 0 0 1 15.616 15.786666 15.658667 15.658667 0 0 1-15.616 15.786667z m0-94.592h-249.301333a15.658667 15.658667 0 0 1-15.573333-15.786667c0-8.704 6.954667-15.786667 15.573333-15.786666h249.301333a15.658667 15.658667 0 0 1 15.616 15.786666 15.658667 15.658667 0 0 1-15.616 15.786667z m-342.826666 189.184H282.709333a15.658667 15.658667 0 0 1-15.573333-15.786667c0-8.661333 6.954667-15.744 15.573333-15.744h249.301334a15.658667 15.658667 0 0 1 15.616 15.786667 15.658667 15.658667 0 0 1-15.616 15.786667z m0-94.592H282.709333a15.658667 15.658667 0 0 1-15.573333-15.786667c0-8.704 6.954667-15.786667 15.573333-15.786666h249.301334a15.658667 15.658667 0 0 1 15.616 15.786666 15.658667 15.658667 0 0 1-15.616 15.786667z m0-94.592H282.709333a15.658667 15.658667 0 0 1-15.573333-15.786667c0-8.704 6.954667-15.786667 15.573333-15.786666h249.301334a15.658667 15.658667 0 0 1 15.616 15.786666 15.658667 15.658667 0 0 1-15.616 15.786667z m93.525333 630.698667h249.301333a15.658667 15.658667 0 0 1 15.616 15.786666 15.658667 15.658667 0 0 1-15.616 15.786667h-249.301333a15.658667 15.658667 0 0 1-15.573333-15.786667c0-8.704 6.954667-15.786667 15.573333-15.786666z m0-94.592h249.301333a15.658667 15.658667 0 0 1 15.616 15.786666 15.658667 15.658667 0 0 1-15.616 15.744h-249.301333a15.658667 15.658667 0 0 1-15.573333-15.786666c0-8.704 6.954667-15.786667 15.573333-15.786667z m0-94.634667h249.301333a15.658667 15.658667 0 0 1 15.616 15.786667 15.658667 15.658667 0 0 1-15.616 15.786666h-249.301333a15.658667 15.658667 0 0 1-15.573333-15.786666c0-8.704 6.954667-15.786667 15.573333-15.786667z"  horiz-adv-x="1024" />

    
    <glyph glyph-name="sanjiao1" unicode="&#58939;" d="M0 886.468923v-0.236308L977.92-128 1953.319385 883.554462 97.201231 886.468923z"  horiz-adv-x="1969" />

    
    <glyph glyph-name="touxiang1" unicode="&#58940;" d="M238.933333 104.379733c-1.570133 158.1056 75.707733 256.273067 172.578134 294.843734l99.464533-165.956267 104.789333 162.133333c93.457067-40.96 167.7312-137.966933 169.233067-291.157333-171.8272-68.130133-352.938667-73.045333-546.065067 0.136533m269.789867 612.215467a154.282667 154.282667 0 1 0 0-308.565333 154.282667 154.282667 0 0 0 0 308.565333M512 896C229.239467 896 0 666.760533 0 384c0-282.760533 229.239467-512 512-512 282.760533 0 512 229.239467 512 512 0 282.760533-229.239467 512-512 512"  horiz-adv-x="1024" />

    
    <glyph glyph-name="yujingguanli" unicode="&#58941;" d="M185.464471 329.005176v-33.008941H34.635294C15.36 296.658824 0 319.608471 0 337.076706c0 17.468235 15.36 40.538353 34.635294 41.08047h152.997647a546.514824 546.514824 0 0 1-2.16847-49.152zM284.310588 573.680941L171.670588 678.430118c-13.492706 12.649412-8.673882 41.562353 4.818824 54.211764a35.659294 35.659294 0 0 0 24.576 9.577412c9.276235 0 23.009882 3.072 29.394823-3.011765l113.54353-103.183058c-18.010353-13.733647-44.393412-46.200471-59.632941-62.34353z m274.130824 138.541177V864.677647c0 17.347765 25.178353 31.382588 44.393412 31.382588 19.154824 0 44.333176-14.034824 44.333176-31.322353v-152.395294a804.502588 804.502588 0 0 1-44.754824 1.566118c-11.866353 0-32.647529-0.783059-43.971764-1.626353z m50.176-298.88753a54.512941 54.512941 0 0 0 31.081412 12.16753c9.758118 0 26.744471-8.131765 33.611294-14.456471 14.336-13.492706 6.686118-37.165176-7.649883-50.597647l-82.160941-76.197647h131.553882c9.818353-0.120471 19.275294-3.794824 26.081883-10.179765 6.866824-6.384941 10.601412-19.576471 10.420706-28.491294 0.060235-4.577882 1.626353 4.638118-0.301177 0.421647 4.336941-12.408471-4.216471-28.310588-14.155294-37.767529l-140.950588-140.348236c-7.047529-6.625882-21.865412-8.011294-31.984941-8.011294-10.179765 0-19.877647 6.023529-26.925177 12.649412-15.058824 13.854118-9.938824 38.369882 5.059765 52.284235l105.592471 91.316706h-128.301177c-18.492235-2.650353-32.888471 0.421647-46.320941 13.552941a32.647529 32.647529 0 0 0 0 48.188236l135.348706 135.469176z m267.023059-97.641412c2.831059 91.437176-44.694588 157.394824-131.915295 203.836236a303.887059 303.887059 0 0 1-282.624 0C373.940706 473.148235 338.522353 396.167529 341.293176 304.730353v-354.966588h534.347295V315.693176z m79.088941-363.760941h76.197647c19.275294-0.542118 34.635294-23.552 34.635294-41.020235 0-17.468235-15.299765-38.369882-34.635294-38.912H173.778824c-19.275294 0.602353-34.635294 21.443765-34.635295 38.912 0 17.468235 15.299765 38.309647 34.635295 38.851765H254.795294V326.354824C251.422118 440.621176 316.837647 547.538824 425.863529 605.545412a379.904 379.904 0 0 0 353.15953 0c108.965647-58.006588 179.260235-164.924235 175.887059-279.190588l-0.180706-374.422589z m-28.491294 615.966118a689.392941 689.392941 0 0 1-64.210824 58.970353l111.435294 103.424c6.445176 6.083765 25.057882 5.180235 34.334118 5.180235a36.141176 36.141176 0 0 0 24.756706-9.577412c13.733647-12.830118 18.552471-41.923765 4.818823-54.753882l-111.134117-103.243294z m243.83247-271.902118h-150.588235v33.008941c0 13.673412-0.783059 35.779765-2.228706 48.971295h152.997647c19.275294-0.602353 34.514824-23.612235 34.454588-41.080471 0-17.408-15.420235-40.357647-34.635294-40.899765z"  horiz-adv-x="1204" />

    
    <glyph glyph-name="docwenjian" unicode="&#58942;" d="M534.997333 133.12c-35.413333 0-64 40.106667-64 89.514667s28.586667 89.557333 64 89.557333c35.328 0 64-40.149333 64-89.557333 0-49.365333-28.672-89.514667-64-89.514667z m0-51.2c62.165333 0 112.554667 63.061333 112.554667 140.714667 0 77.824-50.389333 140.8-112.554667 140.8-62.165333 0-112.64-63.146667-112.64-140.8 0-77.653333 50.474667-140.757333 112.64-140.757334z m-290.432 33.28h-32.042666v209.408h32.170666c8.533333 0 18.218667-0.682667 26.112-3.157333 33.28-10.624 56.917333-34.346667 56.917334-101.290667 0-66.986667-22.613333-87.978667-56.917334-101.546667-7.552-2.986667-17.92-3.413333-26.24-3.413333z m-21.888-41.301333c19.370667 0 34.218667-1.706667 48.597334 2.645333 65.578667 19.498667 107.52 71.850667 107.52 143.701333 0 71.296-38.869333 127.445333-102.613334 142.592-15.061333 3.541333-37.205333 2.517333-53.504 2.517334H161.194667v-291.413334h61.44zM851.882667 688.64L716.8 810.325333V688.64h135.082667zM154.325333-2.56c5.504-41.813333 41.301333-74.24 84.650667-74.24h273.066667V-128h69.717333H512v51.2h358.4v74.24H154.325333zM921.6 432.64H1024v-435.2h-102.4V-128h-339.968 69.717333-418.176A130.901333 130.901333 0 0 0 102.4-2.56H0v435.2h102.4V896h486.4a25.514667 25.514667 0 1 0 0-51.114667H153.6v-412.245333h716.8v204.8h-204.8V870.272h0.512a25.6 25.6 0 0 0 42.538667 16.213333l205.44-185.002666c7.253333-6.528 10.154667-16.64 7.381333-26.026667v-242.858667h0.128z m-6.485333-150.101333c-19.626667 47.786667-62.08 80.981333-111.232 80.981333-67.84 0-122.88-63.061333-122.88-140.757333 0-77.781333 55.04-140.8 122.88-140.8 51.2 0 95.146667 35.968 113.621333 86.954666l-56.704 19.626667c-9.472-33.877333-32.512-57.941333-59.434667-57.941333-35.328 0-64 41.301333-64 92.16 0 50.858667 28.672 92.16 64 92.16 23.509333 0 43.946667-18.133333 55.125334-45.269334l58.624 12.885334z"  horiz-adv-x="1024" />

    
    <glyph glyph-name="qiyetousu-moren" unicode="&#58881;" d="M349.498134-79.14832H156.077465C97.113497-79.14832 48.762392-38.468382 48.762392 11.134162V805.717518C48.762392 855.320063 97.113497 896 156.077465 896h695.508287C910.54972 896 958.900824 855.320063 958.900824 805.717518v-282.955537c0-19.502966-18.544071-35.10534-41.736348-35.10534-23.176025 0-41.720096 15.602373-41.720096 35.10534V805.733771c0 11.132943-11.262963 20.624387-24.508727 20.624387H155.411114c-13.245765 0-24.508728-9.491444-24.508728-20.64064v-794.567103c0-11.149196 11.262963-20.624387 24.508728-20.624387h193.404416c23.20853 0 41.752601-15.602373 41.752601-35.10534C391.201977-63.545947 372.674159-79.14832 349.498134-79.14832zM880.807696 244.38964l25.808926 39.298478c6.907301 14.367185 2.811678 24.817525-6.614756 35.787943l-45.181873 24.508728c-15.212314 6.549746-26.329005 2.567891-38.030784-6.338464l-28.653108-43.670393 92.671595-49.586292z m-30.31086-46.173273l-92.671595 49.586292-150.530396-229.289874c-0.308797-2.69791-0.520079-25.955198-0.650099-69.723105-0.016252-9.946513 8.662568-18.040244 19.389199-18.056497 3.315504-0.016252 6.565999 0.763866 9.458939 2.242841l61.613121 31.594806 153.390831 233.645537z m5.509588 207.4303l95.840827-60.62172c24.053659-13.21326 29.790781-44.255481 15.797403-67.610284l-29.043167-44.060451c-49.781322-75.492732-115.945135-177.688276-198.491441-306.586632-6.663514-9.231404-12.481898-13.489552-23.484822-17.130105l-136.260725-36.811849c-10.304067-2.795425-21.095709 2.69791-24.102416 12.238111a16.821309 16.821309 0 0 0-0.747614 4.14438l-6.988563 129.645969c1.495227 9.914008 3.006707 19.795511 9.670221 29.026915l227.437093 341.545699c14.107146 23.549832 46.319545 29.449479 70.373204 16.219967z m-381.85183-274.016677c-26.865336 0-48.594891 20.12056-48.594891 45.019347s21.729555 45.019347 48.594891 45.019347c26.865336 0 48.594891-20.12056 48.594892-45.019347s-21.729555-45.019347-48.594892-45.019347z m141.445264 258.463062c-26.280247-25.061312-61.596869-39.591022-100.033965-41.151259v-74.988906a16.252472 16.252472 0 0 0-16.252472-16.252472h-29.872044a16.252472 16.252472 0 0 0-16.252472 16.252472v101.77298a32.504944 32.504944 0 0 0 32.504944 32.504943h22.558432c48.676154 0 88.29968 37.786997 88.29968 84.187805 0 46.384555-39.623527 84.171552-88.29968 84.171553-48.676154 0-88.315933-37.786997-88.315933-84.187805 0-3.803078-3.08797-6.891048-6.907301-6.891048h-48.562386a6.907301 6.907301 0 0 0-6.907301 6.9073c0 39.330982 15.423596 75.622752 43.329091 102.228049 27.921747 26.621549 66.082551 41.313784 107.266315 41.313784 41.281279 0 79.360821-14.692235 107.266315-41.313784 27.921747-26.605297 43.345343-62.978329 43.345343-102.228049 0.162525-39.330982-15.163556-75.639005-43.166566-102.325563z"  horiz-adv-x="1024" />

    
    <glyph glyph-name="qiyezizhushenbao" unicode="&#58882;" d="M349.889049-111.213115H157.242754C98.52223-111.213115 50.360656-65.80459 50.360656-10.441443V795.211541C50.360656 850.591475 98.539016 896 157.242754 896h692.727607C908.690885 896 956.852459 850.591475 956.852459 795.211541v-234.529574c0-21.77259-18.465574-39.197377-41.564328-39.197377s-41.564328 17.424787-41.564328 39.197377V795.211541c0 12.439082-11.213639 23.031607-24.408131 23.031607H156.571279c-13.177705 0-24.408131-10.575738-24.408131-23.031607v-805.652984c0-12.422295 11.230426-22.998033 24.408131-22.998032h192.646295c23.098754 0 41.581115-17.424787 41.581115-39.197377 0.654689-21.151475-17.827672-38.576262-40.90964-38.576263zM705.284197 599.879344H262.043279c-24.340984 0-43.830557 17.307279-43.830558 38.945574S237.702295 677.770492 262.060066 677.770492h443.224131c24.340984 0 43.830557-17.307279 43.830557-38.945574 0-22.25941-19.472787-38.945574-43.830557-38.945574z m-64.293771-181.734819h-379.383606c-24.105967 0-43.377311 17.290492-43.377312 38.945573 0 21.621508 19.271344 38.945574 43.377312 38.945574h379.383606c24.105967 0 43.377311-17.324066 43.377312-38.945574 0-21.655082-19.271344-38.945574-43.377312-38.945573z m-116.333115-181.751607H262.798689c-24.777443 0-44.585967 17.307279-44.585968 38.945574s19.808525 38.945574 44.585968 38.945574H523.918689c24.777443 0 43.880918-17.307279 43.880918-38.945574 0.705049-21.638295-19.103475-38.945574-43.175869-38.945574zM861.855475 228.234492l29.15882 38.274098c8.309508 14.268852 5.825049 25.700721-1.56118 38.290885l-39.046295 30.887869c-13.362361 8.628459-24.257049 5.707541-36.310033-2.299803l-32.398689-42.504393 80.157377-62.648656z m-34.245245-44.955279l-80.157378 62.648656-170.101508-223.265574c-0.637902-2.80341-3.82741-27.16118-9.568524-73.056525-1.326164-10.441443 5.741115-19.909246 15.762885-21.168262 3.088787-0.386098 6.211148 0.050361 9.115279 1.275803l61.607868 26.08682 173.341378 227.479082z m31.844721 216.953705l81.718557-74.567344c20.74859-16.619016 22.108328-49.857049 6.043279-72.754361l-32.801574-42.873705c-56.219279-73.492984-131.155934-173.106361-224.860328-298.840131-7.403016-8.913836-13.379148-12.690885-24.122754-15.276066l-132.012065-22.998032c-9.97141-1.729049-19.338492 5.254295-20.916459 15.611803a19.758164 19.758164 0 0 0-0.167869 4.448525l10.172852 136.779541c2.685902 10.223213 5.355016 20.429639 12.758033 29.343475L791.669508 391.302295c16.216131 23.06518 47.053639 25.566426 67.819017 8.930623z"  horiz-adv-x="1024" />

    
    <glyph glyph-name="qiyeyiyixiufu-moren" unicode="&#58883;" d="M290.019556-79.238095H103.489016C46.632635-79.238095 0-35.271111 0 18.334476V798.411175C0 852.033016 46.648889 896 103.489016 896h670.736254C831.081651 896 877.714286 852.033016 877.714286 798.411175v-227.084191c0-21.081397-17.879365-37.953016-40.244826-37.953016s-40.244825 16.871619-40.244825 37.953016V798.411175c0 12.04419-10.857651 22.300444-23.63327 22.300444H102.838857c-12.759365 0-23.63327-10.24-23.63327-22.300444v-780.076699c0-12.027937 10.873905-22.267937 23.63327-22.267936h186.53054c22.36546 0 40.261079-16.871619 40.261079-37.953016 0.633905-20.48-17.261714-37.351619-39.61092-37.351619zM647.704381 663.698286H191.40673C166.343111 663.698286 146.285714 682.812952 146.285714 706.706286S166.343111 749.714286 191.40673 749.714286H647.720635c25.063619 0 45.121016-19.114667 45.121016-43.008 0-24.576-20.057397-43.008-45.121016-43.008z m-61.60254-209.594921H191.40673C166.343111 454.103365 146.285714 473.234286 146.285714 497.127619c0 23.893333 20.057397 43.008 45.121016 43.008H586.118095c25.063619 0 45.121016-19.114667 45.121016-43.008s-20.057397-43.024254-45.121016-43.024254zM457.874286 241.127619H192.853333c-25.079873 0-45.13727 19.114667-45.13727 43.008s20.057397 43.008 45.13727 43.008h264.289524c25.079873 0 44.438349-19.114667 44.438349-43.008 0.698921-23.893333-19.342222-43.008-43.70692-43.008zM914.448254 87.365079a205.531429 205.531429 0 0 0-65.942349-30.167365c-13.913397-3.640889-25.144889-5.20127-32.377905-5.558857a13.702095 13.702095 0 1 0-1.18654 27.371683c1.316571 0.048762 3.835937 0.276317 7.346794 0.763936 5.851429 0.812698 12.336762 2.096762 19.29346 3.900953a178.41981 178.41981 0 0 1 57.100191 26.103873 162.133333 162.133333 0 0 1 47.087746 50.79365c1.625397 2.730667 3.15327 5.493841 4.616127 8.289524 22.593016 43.333079 22.918095 88.340317 10.386285 129.072762a154.152635 154.152635 0 0 1-4.404825 12.434286c-0.552635 1.365333-33.857016-37.270349-99.913143-115.890794l-2.649397-2.974476a9.784889 9.784889 0 0 0-13.848381-0.796444l-2.958222 2.616888-67.486476 57.327746-27.176635 22.300445c-4.616127 4.502349-4.729905 10.922667-0.926476 14.953651 77.238857 81.871238 114.996825 123.026286 113.290159 123.481397-4.567365 1.202794-9.719873 2.958222-15.587556 3.462095-28.688254 2.421841-69.534476 0.227556-101.798603-11.702857a137.508571 137.508571 0 0 1-56.856381-39.172064c-18.415746-21.130159-29.842286-47.071492-35.206095-76.88127-6.404063-35.726222-3.770921-73.825524 4.274793-109.616762 1.300317-5.883937 2.665651-11.166476 3.982223-15.766349 0.503873-1.787937 1.056508-3.592127 1.625396-5.380063l0.650159-1.852953a10.32127 10.32127 0 0 0-2.113016-10.191238l-1.365333-1.511619-147.797333-158.817524c-2.844444-3.15327-5.640127-10.451302-5.477588-14.222222l-0.113777-2.876952c-0.276317-8.208254 1.479111-18.041905 6.631619-26.965334 2.113016-3.640889 4.713651-6.956698 7.883174-9.91492 3.900952-3.640889 8.419556-6.469079 13.490794-8.614603 8.907175-3.689651 18.578286-5.250032 29.728508-4.453588 3.640889 0.032508 10.191238 3.023238 12.743111 5.835175l152.462222 164.165079a13.815873 13.815873 0 0 0 19.29346 0.877715 13.653333 13.653333 0 0 0 1.170286-19.163429l-152.462222-164.165079c-12.12546-13.620825-31.857778-14.888635-32.459175-14.921143-4.95746-0.373841-9.914921-0.325079-14.856127 0.162539a88.974222 88.974222 0 0 0-26.38019 6.420318 72.86654 72.86654 0 0 0-21.58527 13.848381 69.404444 69.404444 0 0 0-12.905651 16.22146 77.368889 77.368889 0 0 0-10.07746 44.324572l-0.08127-1.950477c-0.455111 11.068952 4.973714 25.323683 12.548064 33.678223 95.898413 99.197968 143.555048 149.829079 142.95365 151.893333-1.446603 5.087492-2.925714 10.890159-4.372317 17.310476-8.760889 39.009524-11.654095 80.570921-4.486095 120.393143 6.176508 34.425905 19.61854 64.918349 41.512635 90.03073a165.10781 165.10781 0 0 0 68.104127 46.973968c37.627937 13.880889 78.002794 14.791111 116.687238 7.688127 11.231492-2.064254 19.667302-4.307302 23.600762-5.656381 17.456762-4.388571 22.999365-22.853079 11.052698-36.165079l-105.325714-111.859809 70.834793-64.398223 49.184508 58.855619 48.761905 54.532064c11.767873 13.116952 30.606222 10.012444 36.831492-5.428826 1.950476-3.998476 4.794921-10.955175 7.704381-20.39873 14.466032-47.006476 14.09219-99.132952-12.271746-149.715301-1.706667-3.250794-3.494603-6.469079-5.363809-9.622349a189.68381 189.68381 0 0 0-55.019683-59.326985z"  horiz-adv-x="1024" />

    
    <glyph glyph-name="weifajubao-moren" unicode="&#58884;" d="M195.047619 584.801524V653.978413C195.047619 671.061333 207.823238 684.698413 223.329524 684.698413H730.290794c15.506286 0 28.281905-13.653333 28.281904-30.703746v-69.193143H195.047619z m536.884825-549.384127c-48.826921 0-88.064 42.390349-88.064 94.549333 0 52.14273 39.708444 94.533079 88.064 94.53308 48.826921 0 88.080254-42.390349 88.080254-94.53308 0.438857-52.158984-39.253333-94.549333-88.080254-94.549333z m235.910096-106.235937l-104.496762 111.112127a175.461587 175.461587 0 0 1 24.641016 90.160762c0 92.094984-69.810794 167.139556-156.038096 167.139556-86.243556 0-156.070603-74.556952-156.070603-167.139556 0-92.111238 69.827048-167.15581 156.054349-167.155809 31.045079 0 59.326984 9.752381 83.512889 26.315174l104.025397-111.112127c8.679619-8.777143 28.769524-8.777143 38.343111 0 2.275556 2.438095 7.753143 7.801905 9.589842 10.24 10.028698 10.727619 10.48381 29.728508 0.438857 40.439873zM847.741968 366.917079V835.080127H105.813333V55.344762h381.480635a255.902476 255.902476 0 0 1 26.461461-60.903619H105.797079C74.313143-5.558857 48.761905 21.731556 48.761905 55.344762V835.080127C48.761905 868.709587 74.313143 896 105.813333 896h741.473524c31.483937 0 57.051429-27.290413 57.051429-60.919873v-520.793397a239.355937 239.355937 0 0 1-56.596318 52.630349zM195.047619 538.412698v-261.428825C195.047619 259.657143 207.95327 245.84127 223.605841 245.84127h269.003175c14.303492 40.033524 37.319111 75.61346 67.258921 103.293968h-42.374096c-10.142476 0-18.887111 8.890921-18.887111 20.268699 0 11.361524 8.289524 20.756317 18.887111 20.756317h101.343492a228.693333 228.693333 0 0 0 98.580318 22.723048c16.107683 0 31.776508-1.479111 46.518857-4.941207V538.412698H195.047619z m167.204571-67.714031c1.381587-1.462857 4.144762-3.949714 8.289524-7.41181 5.071238-4.437333 8.760889-7.899429 10.597588-9.37854l-8.289524-9.882412c-1.836698 1.96673-5.071238 4.941206-9.216 8.89092-4.144762 4.437333-7.818159 7.41181-9.671111 8.890921l8.289523 8.890921z m-100.417015-56.336254h29.939809v11.865397h-23.031873v10.873904h23.031873v11.377778H264.614603v11.34527h27.176635v12.353016h12.45054v-11.865397h36.376381v-11.34527h-36.376381v-11.377778h29.939809v-10.873904h-29.939809v-11.865397h36.376381a295.724698 295.724698 0 0 0-1.381588-20.252445c0-9.882413-4.599873-14.823619-14.270984-14.823619h-11.524063a92.192508 92.192508 0 0 1-2.29181 10.873905h10.126223c4.144762-0.487619 6.452825 1.479111 6.907936 5.932698 0.455111 0.975238 0.455111 3.462095 0.455111 6.907937h-24.397206v-31.126349h-12.45054v31.126349H261.851429v10.890159z m-16.123937 56.840127c2.763175-3.965968 6.907937-10.386286 11.979175-18.285715 1.381587-2.470603 2.763175-3.949714 3.234539-4.941206l-11.052698-6.92419c-4.616127 8.890921-9.687365 16.806603-14.303492 24.706031l10.142476 5.44508z m94.890667-115.646984H306.062222c-9.216 0.487619-17.050413 0.487619-24.41346 0.975238-14.742349 0-25.339937 4.453587-31.792762 13.360762-5.98146-5.932698-11.052698-11.377778-13.815873-16.318985l-5.98146 13.344508c1.381587 1.495365 3.689651 3.462095 6.907936 6.924191 2.763175 2.958222 5.071238 4.941206 6.452826 6.420317v36.571429h-11.979175v12.840635h24.41346v-47.932953c5.98146-9.882413 15.652571-14.319746 29.013334-14.319746 11.979175-0.487619 31.792762 0 59.424508 0.487619a42.049016 42.049016 0 0 1-3.689651-12.353015z m31.792762 25.19365c-3.23454-11.34527-5.526349-20.252444-7.379302-27.176635l-12.889397 4.453588c3.218286 8.890921 7.363048 23.243175 12.889397 43.495619 0.926476-0.487619 2.308063-0.991492 4.616127-1.982984 3.218286-1.479111 5.98146-1.982984 7.363048-2.470604-0.910222-2.974476-2.308063-8.403302-4.599873-16.30273z m-3.23454 30.654984a136.289524 136.289524 0 0 1-10.581333 10.370032c-3.689651 3.462095-6.452825 5.932698-7.834413 7.41181l7.834413 9.394793c2.29181-1.982984 5.98146-5.428825 11.96292-10.370031 3.689651-2.974476 5.997714-4.941206 7.379302-6.436572l-8.760889-10.370032z m93.525333-6.436571h-37.774222a425.853968 425.853968 0 0 0-24.41346-34.588444l37.302857 1.479111c-2.763175 4.941206-6.452825 10.890159-11.052698 17.798095l10.126222 5.932698c3.23454-4.941206 9.216-13.344508 16.579047-24.706031 3.705905-5.445079 6.469079-9.394794 7.834413-11.377778l-11.052698-7.41181-5.071238 8.890921c-3.673397-0.487619-8.744635-0.487619-15.197461-0.975238-12.434286-0.487619-21.650286-0.991492-27.631746-1.479111-7.363048-0.487619-12.434286-0.991492-15.19746-1.982984l-5.071238 11.865396c3.689651 1.96673 6.907937 4.924952 9.216 8.890921 5.98146 7.41181 11.979175 16.790349 17.505524 27.176635h-27.631746v11.865397h34.084571v22.235428h-29.484698v11.865397h29.484698v21.74781h12.434286v-20.268699h29.939809v-11.865396h-29.939809v-22.235429h35.011047v-12.840635z m263.021715 52.38654c0-10.873905-8.289524-20.252444-18.887112-20.252445H517.03873c-10.142476 0-18.887111 8.890921-18.887111 20.252445v0.487619c0 10.890159 8.289524 20.268698 18.887111 20.268698h189.781333c10.597587-0.487619 18.887111-9.37854 18.887112-20.756317z"  horiz-adv-x="1024" />

    
    <glyph glyph-name="xiaofeitousu-moren" unicode="&#58885;" d="M221.866667 187.733333c0 21.333333-22.186667 42.666667-44.373334 42.666667H44.373333C22.186667 230.4 0 209.066667 0 187.733333S22.186667 145.066667 44.373333 145.066667h140.509867c22.186667 0 36.983467 14.2336 36.983467 42.666666zM42.939733 537.6C21.469867 537.6 0 560.878933 0 584.1408 0 607.419733 21.469867 622.933333 42.939733 622.933333h135.9872C200.3968 622.933333 221.866667 599.671467 221.866667 576.392533 221.866667 553.1136 200.3968 537.6 178.926933 537.6H42.939733zM943.138133 896C987.2384 896 1024 859.426133 1024 815.547733v-863.095466C1024-91.426133 987.2384-128 943.138133-128H156.484267c-44.100267 0-80.861867 36.573867-80.861867 80.452267v58.5216c0 21.930667 22.050133 43.8784 44.117333 43.8784 22.050133 0 44.100267-21.947733 44.100267-43.8784v-58.5216h793.992533V808.226133H156.501333V742.4c0-21.947733-22.050133-43.895467-44.100266-43.895467-22.0672 0-44.117333 29.269333-44.117334 51.2v58.538667C68.266667 852.087467 105.028267 888.661333 149.128533 888.661333h794.0096V896zM42.939733 349.866667C21.469867 349.866667 0 371.2 0 392.533333S21.469867 435.2 42.939733 435.2h135.9872C200.3968 435.2 221.866667 413.866667 221.866667 392.533333S200.3968 349.866667 178.926933 349.866667H42.939733zM563.2 528.1792l66.56 66.594133c14.7968 14.7968 44.373333 14.7968 59.170133 0 14.779733-14.7968 14.779733-44.407467 0-59.204266l-73.966933-81.408h133.12c22.186667 0 36.983467-14.779733 36.983467-36.983467v-7.406933c0-22.186667-14.7968-36.983467-36.983467-36.983467H607.573333v-74.001067h103.543467c22.186667 0 36.9664-14.7968 36.9664-37.000533v-7.406933c0-22.186667-14.779733-36.983467-36.9664-36.983467H607.573333V121.173333c0-22.186667-22.186667-44.3904-44.373333-44.3904s-44.373333 22.186667-44.373333 44.3904v96.2048h-103.543467c-22.186667 0-36.983467 14.7968-36.983467 36.983467v7.406933c0 22.186667 14.7968 37.000533 36.983467 37.000534H518.826667v74.001066h-140.526934c-22.186667 0-36.9664 22.186667-36.9664 44.373334 0 22.2208 14.7968 37.0176 36.9664 37.0176h133.12l-73.949866 74.001066c-14.779733 14.7968-14.779733 44.373333 0 59.1872 14.7968 14.7968 44.373333 14.7968 59.170133 0l66.56-59.1872z"  horiz-adv-x="1024" />

    
    <glyph glyph-name="yichangminglu-moren" unicode="&#58886;" d="M576.048216-127.80912H152.156535C88.020967-127.80912 43.389831-96.053685 43.389831-19.354764V792.838217C43.389831 845.74659 93.591183 896 152.156535 896h719.512227C924.663898 896 980.435466 845.74659 980.435466 792.820864v-486.777855c0-13.222755-19.521784-26.44551-33.473352-26.44551-13.934216 0-33.456 13.222755-33.456 26.44551V792.820864c0 18.53268-19.521784 37.048008-39.043568 37.048008H152.156535c-19.521784 0-39.043568-18.515328-39.043568-37.048008v-817.450848c0-21.17029 19.521784-37.048008 39.043568-37.048008h418.321466c13.951568 0 27.885784-18.515328 27.885784-31.755436C595.587353-111.91405 589.999785-127.80912 576.048216-127.80912zM495.13259 149.834031H247.561663c-11.348664 0-22.71468 19.087967-22.71468 32.692481 0 13.63922 11.366017 32.709834 22.732033 32.709834h247.553574c11.348664 0 22.697328-13.621867 22.697328-35.416855-2.255851-16.363593-13.621867-29.98546-22.697328-29.98546z m240.05721 228.951484H243.36231c-13.222755 0-26.44551 19.070614-26.44551 32.692481 0 13.63922 13.222755 32.709834 26.44551 32.709833H737.844763c13.222755 0 26.44551-19.087967 26.44551-32.709833 0-16.346241-15.860365-32.692481-29.08312-32.692481z m5.292573 226.209757h-489.172528c-13.240108 0-26.462863 19.087967-26.462862 32.709834 0 13.63922 13.222755 32.709834 26.44551 32.709834h494.465099C758.980348 670.41494 772.203103 651.326973 772.203103 637.705106c-2.63761-13.621867-15.860365-32.709834-31.72073-32.709834zM798.232148-110.456423C697.760033-110.456423 616.02883-28.742573 616.02883 71.712189 616.02883 172.184305 697.760033 253.950213 798.232148 253.950213S980.435466 172.236363 980.435466 71.7816C980.435466-28.690515 898.704263-110.456423 798.232148-110.456423z m0 323.280744c-77.826846 0-141.077426-63.302638-141.077426-141.042721s63.337344-141.060074 141.077426-141.060074c77.826846 0 141.077426 63.319991 141.077426 141.077427 0 77.740082-63.25058 141.042721-141.077426 141.042721zM798.232148 38.655302c-14.420091 0-26.029045 10.029859-26.029045 22.332921v83.865584c0 12.389826 11.678365 22.332921 26.029045 22.332921s26.029045-10.012506 26.029045-22.332921v-83.865584c0.069411-12.372473-11.608954-22.332921-26.029045-22.332921zM772.203103-1.360018c0-12.320415 11.661012-22.332921 26.029045-22.332921s26.029045 9.995153 26.029045 22.332921c0 12.320415-11.661012 22.332921-26.029045 22.332921s-26.029045-10.012506-26.029045-22.332921z"  horiz-adv-x="1024" />

    
    <glyph glyph-name="jiantou-shang" unicode="&#58943;" d="M424.128 519.744L152.64 248.256l90.496-90.56 271.552 271.552 271.488-271.552 85.184 95.872L599.872 525.12l-85.184 85.184z"  horiz-adv-x="1024" />

    
    <glyph glyph-name="jiantou-xia" unicode="&#58944;" d="M514.688 157.696l85.184 85.184L871.36 514.432l-85.184 95.872-271.488-271.552-271.552 271.552-90.496-90.56 271.488-271.488 90.56-90.56z"  horiz-adv-x="1024" />

    
    <glyph glyph-name="rihuanbi-shangsheng" unicode="&#58887;" d="M209.289846 595.652923l355.800616-97.476923-138.673231-187.352615-128.905846 98.304L0-127.842462V-128l335.556923 308.460308 157.144615-107.323077 243.003077 319.763692 198.104616-202.633846L1024 896z"  horiz-adv-x="1024" />

    
    <glyph glyph-name="rihuanbi-xiajiang" unicode="&#58888;" d="M814.710154 172.347077L458.909538 269.784615l138.673231 187.352616 128.905846-98.304L1024 895.842462V896l-335.556923-308.460308-157.144615 107.323077-243.003077-319.763692L90.190769 577.772308 0-128z"  horiz-adv-x="1024" />

    
    <glyph glyph-name="Galileo_gouxuan" unicode="&#58945;" d="M1522.33-75.622c8.908 16.69 13.67 33.254 13.67 78.899V764.723c0 45.645-4.762 62.208-13.67 78.874a93.107 93.107 0 0 1-38.708 38.707C1466.932 891.238 1450.368 896 1404.723 896H131.277C85.632 896 69.069 891.238 52.403 882.33a93.107 93.107 0 0 1-38.707-38.708C4.762 826.932 0 810.368 0 764.723v-761.472c0-45.645 4.762-62.208 13.67-78.873 8.935-16.692 22.016-29.773 38.708-38.708 16.69-8.908 33.254-13.67 78.899-13.67h1273.472c45.645 0 62.208 4.762 78.873 13.67a93.107 93.107 0 0 1 38.708 38.708zM1404.723-102.4H131.277c-43.52 0-55.143 4.403-66.816 10.65a67.533 67.533 0 0 0-28.211 28.21c-6.221 11.674-10.65 23.271-10.65 66.817V764.723c0 43.546 4.429 55.143 10.65 66.816A67.533 67.533 0 0 0 64.46 859.75c11.674 6.247 23.297 10.65 66.817 10.65h1273.446c43.52 0 55.143-4.403 66.816-10.65 12.211-6.528 21.683-16 28.211-28.21 6.221-11.674 10.65-23.271 10.65-66.817v-761.446c0-43.546-4.429-55.143-10.65-66.816a67.533 67.533 0 0 0-28.21-28.211c-11.674-6.247-23.297-10.65-66.817-10.65zM1024-128h380.723c45.645 0 62.208 4.762 78.874 13.67a93.107 93.107 0 0 1 38.707 38.708c8.934 16.69 13.696 33.254 13.696 78.899V384l-512-512z m314.88 71.68l-71.68 71.68 17.92 17.92 53.76-53.76 135.68 135.68 17.92-17.92-153.6-153.6z"  horiz-adv-x="1536" />

    
    <glyph glyph-name="qiyepingfencopy" unicode="&#58946;" d="M842.108718 300.373333h-134.957949c-23.289436 0-42.180923 18.707692-42.180923 41.760821 0 23.079385 18.891487 41.773949 42.180923 41.773949h134.957949c23.289436 0 42.167795-18.694564 42.167795-41.773949 0-23.053128-18.878359-41.747692-42.167795-41.747692z m0-168.749948h-134.957949c-23.289436 0-42.180923 18.707692-42.180923 41.773948 0 23.053128 18.891487 41.760821 42.180923 41.760821h134.957949c23.289436 0 42.167795-18.707692 42.167795-41.760821 0-23.066256-18.878359-41.773949-42.167795-41.773948zM519.259897 675.459282c0-27.687385-22.659282-50.123487-50.60923-50.123487H257.772308c-27.949949 0-50.609231 22.449231-50.609231 50.123487v15.031795c0 27.687385 22.659282 50.123487 50.609231 50.123487h210.878359c27.949949 0 50.609231-22.449231 50.60923-50.123487v-15.031795z m0-235.585641c0-27.674256-22.659282-50.110359-50.60923-50.110359H257.772308c-27.949949 0-50.609231 22.436103-50.609231 50.110359v15.044923c0 27.674256 22.659282 50.123487 50.609231 50.123487h210.878359c27.949949 0 50.609231-22.449231 50.60923-50.123487v-15.044923z m0-218.847179c0-27.700513-22.659282-50.136615-50.60923-50.136616H257.772308c-27.949949 0-50.609231 22.449231-50.609231 50.123487v15.044923c0 27.674256 22.659282 50.110359 50.609231 50.110359h210.878359c27.949949 0 50.609231-22.436103 50.60923-50.110359v-15.044923z m454.130872-183.112206h-31.744V495.012103c0 27.687385-22.659282 50.123487-50.622359 50.123487H664.339692V845.876513C664.339692 873.563897 641.68041 896 613.74359 896H112.692513C84.742564 896 62.083282 873.550769 62.083282 845.876513v-807.962257h-11.474051C22.659282 37.914256 0 15.491282 0-12.196103v-65.68041C0-105.563897 22.659282-128 50.609231-128h922.781538C1001.353846-128 1024-105.550769 1024-77.876513V-12.209231c0 27.687385-22.646154 50.110359-50.609231 50.110359z"  horiz-adv-x="1024" />

    
    <glyph glyph-name="chiping" unicode="&#58889;" d="M1706.057143 378.953143c12.214857 21.430857-8.338286 39.277714-8.338286 39.277714L1036.361143 868.571429c-7.241143 6.363429-14.043429 6.144-14.043429 6.144-7.021714-0.292571-13.824-0.512-13.604571-7.168-6.802286-6.875429-13.165714-20.260571-6.144-26.624l142.482286-310.930286C572.123429 492.251429 710.144 492.544 0.146286 381.586286c111.908571-5.705143 301.860571-23.405714 1154.925714-154.258286l-121.270857-320.658286c-6.582857-13.385143 0.731429-19.748571 7.899428-26.112 7.021714-6.436571 20.918857-5.851429 34.523429 1.243429l629.76 497.152z"  horiz-adv-x="1755" />

    
    <glyph glyph-name="yujing" unicode="&#58891;" d="M512.05-128C231.377-128 1.7 101.578 0.1 383.85c-0.8 136.587 51.795 264.874 147.986 361.165C244.276 841.305 373.464 894.9 511.85 895.9h3.5c134.387 0 261.074-52.295 356.965-147.586C970.105 651.224 1024 521.837 1024 383.95 1024 101.678 794.322-128 512.05-128z m0.2 972.705c-255.575-1.8-462.355-208.38-460.955-460.655 1.4-254.175 208.08-460.855 460.755-460.855 254.075 0 460.755 206.68 460.755 460.755 0 124.088-48.495 240.577-136.487 328.068C749.327 798.41 634.238 845.905 512.25 844.705zM430.158 599.529c0 45.196 36.696 81.892 81.892 81.892s81.892-36.696 81.892-81.892l-40.996-331.468c0-22.597-18.298-40.996-40.996-40.996s-40.996 18.299-40.996 40.996L430.158 599.53zM460.855 137.574a51.195 51.195 0 1 1 102.39 0 51.195 51.195 0 1 1-102.39 0z"  horiz-adv-x="1024" />

    
    <glyph glyph-name="jianqu" unicode="&#58947;" d="M341.333333 408.380952h390.095238a48.761905 48.761905 0 1 0 0-97.523809H341.333333a48.761905 48.761905 0 1 0 0 97.523809z m-243.809523-27.062857c0-230.4 179.2-410.770286 409.892571-410.770285 230.887619 0 418.03581 180.370286 418.035809 410.770285C925.45219 611.766857 738.255238 798.47619 507.416381 798.47619 276.48 798.47619 97.52381 611.718095 97.52381 381.318095zM0 384C0 666.819048 229.180952 896 512 896S1024 666.819048 1024 384C1024 101.376 794.819048-128 512-128S0 101.376 0 384z"  horiz-adv-x="1024" />

    
    <glyph glyph-name="meishuju" unicode="&#58948;" d="M512 896C229.236364 896 0 666.763636 0 384s229.236364-512 512-512 512 229.236364 512 512S794.763636 896 512 896zM428.032 73.541818c-33.838545 0-57.250909 16.058182-57.250909 52.130909 0 45.474909 31.883636 123.205818 38.493091 139.357091l65.629091 166.865455c6.562909 17.082182-1.861818 25.6-9.402182 25.6-34.722909 0-79.732364-82.525091-96.628364-82.525091-6.562909 0-12.194909 6.656-12.194909 12.381091 0 17.035636 41.285818 56.878545 53.527273 69.12 37.515636 36.072727 86.341818 63.534545 140.753454 63.534545 40.354909 0 83.595636-24.669091 49.757091-116.596363l-67.584-184.878546c-5.585455-14.196364-15.918545-37.934545-15.918545-53.061818 0-6.656 3.723636-13.312 11.170909-13.312 28.206545 0 79.778909 80.616727 92.951273 80.616727 4.654545 0 11.264-5.678545 11.264-14.196363 0-27.461818-109.754182-145.082182-204.567273-145.082182z m161.419636 480.628364c-38.539636 0-63.813818 25.6-63.813818 64.512 0 41.704727 35.607273 75.822545 76.893091 75.822545 37.562182 0 64.744727-25.6 64.791273-64.512 0-43.566545-35.700364-75.822545-77.870546-75.822545z"  horiz-adv-x="1024" />

    


  </font>
</defs>
</svg>
